<?xml version="1.0" encoding="UTF-8"?>
<svg xmlns="http://www.w3.org/2000/svg" xmlns:xlink="http://www.w3.org/1999/xlink" width="348.859" height="209.975" viewBox="0 0 348.859 209.975">
<defs>
<g>
<g id="glyph-0-0">
<path d="M 3.6875 -5.421875 C 3.6875 -5.515625 3.59375 -5.53125 3.546875 -5.53125 C 3.453125 -5.53125 3.4375 -5.484375 3.40625 -5.359375 L 2.953125 -3.53125 C 1.546875 -3.46875 0.40625 -2.40625 0.40625 -1.375 C 0.40625 -0.578125 1.09375 0.046875 2.046875 0.09375 C 1.984375 0.328125 1.921875 0.59375 1.859375 0.84375 C 1.765625 1.21875 1.703125 1.5 1.703125 1.53125 C 1.703125 1.53125 1.703125 1.625 1.8125 1.625 C 1.921875 1.625 1.921875 1.578125 1.96875 1.4375 L 2.296875 0.09375 C 3.71875 0.03125 4.84375 -1.015625 4.84375 -2.0625 C 4.84375 -2.96875 4.046875 -3.484375 3.21875 -3.515625 Z M 3.15625 -3.3125 C 3.75 -3.265625 4.28125 -2.9375 4.28125 -2.203125 C 4.28125 -1.4375 3.734375 -0.265625 2.359375 -0.140625 Z M 2.109375 -0.125 C 1.84375 -0.140625 0.984375 -0.265625 0.984375 -1.234375 C 0.984375 -2.09375 1.625 -3.171875 2.890625 -3.296875 Z M 2.109375 -0.125 "/>
</g>
<g id="glyph-0-1">
<path d="M 1.625 -0.4375 C 1.625 -0.703125 1.390625 -0.890625 1.171875 -0.890625 C 0.921875 -0.890625 0.734375 -0.671875 0.734375 -0.453125 C 0.734375 -0.171875 0.953125 0 1.171875 0 C 1.421875 0 1.625 -0.203125 1.625 -0.4375 Z M 1.625 -0.4375 "/>
</g>
<g id="glyph-0-2">
<path d="M 3.8125 -3.90625 C 3.8125 -4.90625 3.4375 -5.609375 2.765625 -5.609375 C 1.578125 -5.609375 0.34375 -3.390625 0.34375 -1.625 C 0.34375 -0.859375 0.609375 0.078125 1.40625 0.078125 C 2.5625 0.078125 3.8125 -2.078125 3.8125 -3.90625 Z M 1.25 -2.90625 C 1.625 -4.515625 2.265625 -5.390625 2.765625 -5.390625 C 3.25 -5.390625 3.25 -4.53125 3.25 -4.375 C 3.25 -3.9375 3.09375 -3.296875 3 -2.90625 Z M 2.9375 -2.625 C 2.5625 -1.03125 1.90625 -0.140625 1.40625 -0.140625 C 0.984375 -0.140625 0.9375 -0.78125 0.9375 -1.140625 C 0.9375 -1.65625 1.078125 -2.296875 1.171875 -2.625 Z M 2.9375 -2.625 "/>
</g>
<g id="glyph-1-0">
<path d="M 3.28125 -1.90625 C 3.28125 -2.34375 3.28125 -3.96875 1.828125 -3.96875 C 0.359375 -3.96875 0.359375 -2.34375 0.359375 -1.90625 C 0.359375 -1.46875 0.359375 0.125 1.828125 0.125 C 3.28125 0.125 3.28125 -1.46875 3.28125 -1.90625 Z M 1.828125 -0.0625 C 1.5625 -0.0625 1.15625 -0.1875 1.015625 -0.6875 C 0.921875 -1.03125 0.921875 -1.609375 0.921875 -1.984375 C 0.921875 -2.375 0.921875 -2.84375 1.015625 -3.15625 C 1.15625 -3.703125 1.609375 -3.78125 1.828125 -3.78125 C 2.09375 -3.78125 2.484375 -3.640625 2.625 -3.1875 C 2.703125 -2.875 2.71875 -2.4375 2.71875 -1.984375 C 2.71875 -1.59375 2.71875 -1 2.609375 -0.65625 C 2.453125 -0.140625 2.015625 -0.0625 1.828125 -0.0625 Z M 1.828125 -0.0625 "/>
</g>
<g id="glyph-1-1">
<path d="M 2.828125 -1.78125 C 2.828125 -2.328125 2.265625 -2.65625 1.59375 -2.65625 C 1.3125 -2.65625 0.609375 -2.625 0.609375 -2.125 C 0.609375 -1.96875 0.71875 -1.84375 0.90625 -1.84375 C 1.078125 -1.84375 1.1875 -1.96875 1.1875 -2.125 C 1.1875 -2.234375 1.140625 -2.328125 1.03125 -2.375 C 1.234375 -2.46875 1.53125 -2.46875 1.59375 -2.46875 C 2.015625 -2.46875 2.34375 -2.21875 2.34375 -1.765625 L 2.34375 -1.609375 C 2.0625 -1.59375 1.59375 -1.59375 1.15625 -1.4375 C 0.765625 -1.296875 0.375 -1.03125 0.375 -0.625 C 0.375 -0.09375 1.015625 0.0625 1.484375 0.0625 C 1.984375 0.0625 2.28125 -0.1875 2.40625 -0.421875 C 2.453125 -0.109375 2.65625 0.03125 2.859375 0.03125 C 2.890625 0.03125 3.515625 0.03125 3.515625 -0.53125 L 3.515625 -0.859375 L 3.296875 -0.859375 L 3.296875 -0.546875 C 3.296875 -0.484375 3.296875 -0.21875 3.0625 -0.21875 C 2.828125 -0.21875 2.828125 -0.484375 2.828125 -0.546875 Z M 2.34375 -0.84375 C 2.34375 -0.234375 1.71875 -0.125 1.53125 -0.125 C 1.21875 -0.125 0.90625 -0.328125 0.90625 -0.625 C 0.90625 -0.96875 1.234375 -1.390625 2.34375 -1.4375 Z M 2.34375 -0.84375 "/>
</g>
<g id="glyph-1-2">
<path d="M 2.453125 -2.40625 C 2.390625 -2.375 2.328125 -2.28125 2.328125 -2.15625 C 2.328125 -2 2.4375 -1.875 2.609375 -1.875 C 2.796875 -1.875 2.90625 -2 2.90625 -2.171875 C 2.90625 -2.640625 2.265625 -2.65625 1.890625 -2.65625 C 0.78125 -2.65625 0.328125 -1.875 0.328125 -1.296875 C 0.328125 -0.546875 0.984375 0.0625 1.828125 0.0625 C 2.765625 0.0625 2.984375 -0.65625 2.984375 -0.71875 C 2.984375 -0.796875 2.890625 -0.796875 2.859375 -0.796875 C 2.78125 -0.796875 2.78125 -0.765625 2.75 -0.703125 C 2.71875 -0.625 2.65625 -0.453125 2.453125 -0.3125 C 2.3125 -0.21875 2.125 -0.15625 1.890625 -0.15625 C 1.421875 -0.15625 0.890625 -0.484375 0.890625 -1.296875 C 0.890625 -1.546875 0.9375 -1.890625 1.15625 -2.140625 C 1.421875 -2.453125 1.734375 -2.453125 1.921875 -2.453125 C 2.078125 -2.453125 2.28125 -2.453125 2.453125 -2.40625 Z M 2.453125 -2.40625 "/>
</g>
<g id="glyph-1-3">
<path d="M 3.265625 -1.796875 C 3.265625 -2.390625 2.9375 -2.625 2.328125 -2.625 C 1.6875 -2.625 1.40625 -2.234375 1.3125 -2.09375 L 1.3125 -4.140625 L 0.375 -4.078125 L 0.375 -3.84375 C 0.796875 -3.84375 0.84375 -3.796875 0.84375 -3.515625 L 0.84375 -0.484375 C 0.84375 -0.234375 0.78125 -0.234375 0.375 -0.234375 L 0.375 0 C 0.421875 0 0.828125 -0.03125 1.09375 -0.03125 C 1.359375 -0.03125 1.75 0 1.8125 0 L 1.8125 -0.234375 C 1.40625 -0.234375 1.34375 -0.234375 1.34375 -0.484375 L 1.34375 -1.546875 C 1.34375 -2.203125 1.90625 -2.4375 2.28125 -2.4375 C 2.671875 -2.4375 2.765625 -2.1875 2.765625 -1.828125 L 2.765625 -0.484375 C 2.765625 -0.234375 2.703125 -0.234375 2.296875 -0.234375 L 2.296875 0 C 2.34375 0 2.75 -0.03125 3.015625 -0.03125 C 3.28125 -0.03125 3.671875 0 3.734375 0 L 3.734375 -0.234375 C 3.328125 -0.234375 3.265625 -0.234375 3.265625 -0.484375 Z M 3.265625 -1.796875 "/>
</g>
<g id="glyph-2-0">
<path d="M 3.890625 -2.546875 C 3.890625 -3.390625 3.8125 -3.90625 3.546875 -4.421875 C 3.203125 -5.125 2.546875 -5.296875 2.109375 -5.296875 C 1.109375 -5.296875 0.734375 -4.546875 0.625 -4.328125 C 0.34375 -3.75 0.328125 -2.953125 0.328125 -2.546875 C 0.328125 -2.015625 0.34375 -1.21875 0.734375 -0.578125 C 1.09375 0.015625 1.6875 0.171875 2.109375 0.171875 C 2.5 0.171875 3.171875 0.046875 3.578125 -0.734375 C 3.875 -1.3125 3.890625 -2.03125 3.890625 -2.546875 Z M 2.109375 -0.0625 C 1.84375 -0.0625 1.296875 -0.1875 1.125 -1.015625 C 1.03125 -1.46875 1.03125 -2.21875 1.03125 -2.640625 C 1.03125 -3.1875 1.03125 -3.75 1.125 -4.1875 C 1.296875 -5 1.90625 -5.078125 2.109375 -5.078125 C 2.375 -5.078125 2.9375 -4.9375 3.09375 -4.21875 C 3.1875 -3.78125 3.1875 -3.171875 3.1875 -2.640625 C 3.1875 -2.171875 3.1875 -1.453125 3.09375 -1 C 2.921875 -0.171875 2.375 -0.0625 2.109375 -0.0625 Z M 2.109375 -0.0625 "/>
</g>
<g id="glyph-2-1">
<path d="M 4.03125 -4.859375 C 4.109375 -4.9375 4.109375 -4.953125 4.109375 -5.125 L 2.078125 -5.125 C 1.875 -5.125 1.640625 -5.140625 1.4375 -5.15625 C 1.015625 -5.1875 1.015625 -5.265625 0.984375 -5.390625 L 0.734375 -5.390625 L 0.46875 -3.703125 L 0.71875 -3.703125 C 0.734375 -3.828125 0.828125 -4.375 0.9375 -4.4375 C 1.015625 -4.484375 1.625 -4.484375 1.734375 -4.484375 L 3.421875 -4.484375 L 2.609375 -3.375 C 1.703125 -2.171875 1.5 -0.90625 1.5 -0.28125 C 1.5 -0.203125 1.5 0.171875 1.875 0.171875 C 2.25 0.171875 2.25 -0.1875 2.25 -0.28125 L 2.25 -0.671875 C 2.25 -1.8125 2.453125 -2.75 2.84375 -3.28125 Z M 4.03125 -4.859375 "/>
</g>
<g id="glyph-2-2">
<path d="M 3.140625 -5.15625 C 3.140625 -5.3125 3.140625 -5.375 2.96875 -5.375 C 2.875 -5.375 2.859375 -5.375 2.78125 -5.265625 L 0.234375 -1.5625 L 0.234375 -1.3125 L 2.484375 -1.3125 L 2.484375 -0.640625 C 2.484375 -0.34375 2.46875 -0.265625 1.84375 -0.265625 L 1.671875 -0.265625 L 1.671875 0 C 2.34375 -0.03125 2.359375 -0.03125 2.8125 -0.03125 C 3.265625 -0.03125 3.28125 -0.03125 3.953125 0 L 3.953125 -0.265625 L 3.78125 -0.265625 C 3.15625 -0.265625 3.140625 -0.34375 3.140625 -0.640625 L 3.140625 -1.3125 L 3.984375 -1.3125 L 3.984375 -1.5625 L 3.140625 -1.5625 Z M 2.546875 -4.515625 L 2.546875 -1.5625 L 0.515625 -1.5625 Z M 2.546875 -4.515625 "/>
</g>
<g id="glyph-2-3">
<path d="M 3.46875 -1.8125 L 5.8125 -1.8125 C 5.921875 -1.8125 6.109375 -1.8125 6.109375 -1.984375 C 6.109375 -2.171875 5.921875 -2.171875 5.8125 -2.171875 L 3.46875 -2.171875 L 3.46875 -4.53125 C 3.46875 -4.640625 3.46875 -4.8125 3.296875 -4.8125 C 3.109375 -4.8125 3.109375 -4.640625 3.109375 -4.53125 L 3.109375 -2.171875 L 0.75 -2.171875 C 0.640625 -2.171875 0.46875 -2.171875 0.46875 -1.984375 C 0.46875 -1.8125 0.640625 -1.8125 0.75 -1.8125 L 3.109375 -1.8125 L 3.109375 0.546875 C 3.109375 0.65625 3.109375 0.828125 3.296875 0.828125 C 3.46875 0.828125 3.46875 0.65625 3.46875 0.546875 Z M 3.46875 -1.8125 "/>
</g>
<g id="glyph-2-4">
<path d="M 3.125 -2.34375 C 3.125 -0.40625 2.203125 -0.078125 1.734375 -0.078125 C 1.5625 -0.078125 1.15625 -0.09375 0.9375 -0.34375 C 1.296875 -0.375 1.3125 -0.640625 1.3125 -0.71875 C 1.3125 -0.953125 1.125 -1.09375 0.9375 -1.09375 C 0.796875 -1.09375 0.5625 -1 0.5625 -0.703125 C 0.5625 -0.15625 1.015625 0.171875 1.75 0.171875 C 2.84375 0.171875 3.875 -0.921875 3.875 -2.625 C 3.875 -4.6875 2.953125 -5.296875 2.140625 -5.296875 C 1.1875 -5.296875 0.34375 -4.5625 0.34375 -3.515625 C 0.34375 -2.5 1.125 -1.75 2.03125 -1.75 C 2.59375 -1.75 2.9375 -2.109375 3.125 -2.515625 Z M 2.0625 -1.96875 C 1.6875 -1.96875 1.453125 -2.140625 1.28125 -2.4375 C 1.09375 -2.71875 1.09375 -3.109375 1.09375 -3.515625 C 1.09375 -3.984375 1.09375 -4.3125 1.3125 -4.640625 C 1.515625 -4.9375 1.765625 -5.09375 2.140625 -5.09375 C 2.671875 -5.09375 2.90625 -4.5625 2.9375 -4.53125 C 3.09375 -4.140625 3.109375 -3.515625 3.109375 -3.359375 C 3.109375 -2.71875 2.765625 -1.96875 2.0625 -1.96875 Z M 2.0625 -1.96875 "/>
</g>
<g id="glyph-2-5">
<path d="M 2.015625 -2.65625 C 2.640625 -2.65625 3.046875 -2.203125 3.046875 -1.359375 C 3.046875 -0.359375 2.484375 -0.078125 2.0625 -0.078125 C 1.625 -0.078125 1.015625 -0.234375 0.734375 -0.65625 C 1.03125 -0.65625 1.234375 -0.84375 1.234375 -1.09375 C 1.234375 -1.359375 1.046875 -1.53125 0.78125 -1.53125 C 0.578125 -1.53125 0.34375 -1.40625 0.34375 -1.078125 C 0.34375 -0.328125 1.15625 0.171875 2.078125 0.171875 C 3.125 0.171875 3.875 -0.5625 3.875 -1.359375 C 3.875 -2.03125 3.34375 -2.625 2.53125 -2.8125 C 3.15625 -3.03125 3.640625 -3.5625 3.640625 -4.203125 C 3.640625 -4.84375 2.921875 -5.296875 2.09375 -5.296875 C 1.234375 -5.296875 0.59375 -4.84375 0.59375 -4.234375 C 0.59375 -3.9375 0.78125 -3.8125 1 -3.8125 C 1.25 -3.8125 1.40625 -3.984375 1.40625 -4.21875 C 1.40625 -4.515625 1.140625 -4.625 0.96875 -4.625 C 1.3125 -5.0625 1.921875 -5.09375 2.0625 -5.09375 C 2.265625 -5.09375 2.875 -5.03125 2.875 -4.203125 C 2.875 -3.65625 2.640625 -3.3125 2.53125 -3.1875 C 2.296875 -2.9375 2.109375 -2.921875 1.625 -2.890625 C 1.46875 -2.890625 1.40625 -2.875 1.40625 -2.765625 C 1.40625 -2.65625 1.484375 -2.65625 1.625 -2.65625 Z M 2.015625 -2.65625 "/>
</g>
<g id="glyph-2-6">
<path d="M 2.5 -5.078125 C 2.5 -5.296875 2.484375 -5.296875 2.265625 -5.296875 C 1.9375 -4.984375 1.515625 -4.796875 0.765625 -4.796875 L 0.765625 -4.53125 C 0.984375 -4.53125 1.40625 -4.53125 1.875 -4.734375 L 1.875 -0.65625 C 1.875 -0.359375 1.84375 -0.265625 1.09375 -0.265625 L 0.8125 -0.265625 L 0.8125 0 C 1.140625 -0.03125 1.828125 -0.03125 2.1875 -0.03125 C 2.546875 -0.03125 3.234375 -0.03125 3.5625 0 L 3.5625 -0.265625 L 3.28125 -0.265625 C 2.53125 -0.265625 2.5 -0.359375 2.5 -0.65625 Z M 2.5 -5.078125 "/>
</g>
<g id="glyph-2-7">
<path d="M 2.25 -1.625 C 2.375 -1.75 2.703125 -2.015625 2.84375 -2.125 C 3.328125 -2.578125 3.796875 -3.015625 3.796875 -3.734375 C 3.796875 -4.6875 3 -5.296875 2.015625 -5.296875 C 1.046875 -5.296875 0.421875 -4.578125 0.421875 -3.859375 C 0.421875 -3.46875 0.734375 -3.421875 0.84375 -3.421875 C 1.015625 -3.421875 1.265625 -3.53125 1.265625 -3.84375 C 1.265625 -4.25 0.859375 -4.25 0.765625 -4.25 C 1 -4.84375 1.53125 -5.03125 1.921875 -5.03125 C 2.65625 -5.03125 3.046875 -4.40625 3.046875 -3.734375 C 3.046875 -2.90625 2.46875 -2.296875 1.515625 -1.34375 L 0.515625 -0.296875 C 0.421875 -0.21875 0.421875 -0.203125 0.421875 0 L 3.5625 0 L 3.796875 -1.421875 L 3.546875 -1.421875 C 3.53125 -1.265625 3.46875 -0.875 3.375 -0.71875 C 3.328125 -0.65625 2.71875 -0.65625 2.59375 -0.65625 L 1.171875 -0.65625 Z M 2.25 -1.625 "/>
</g>
<g id="glyph-2-8">
<path d="M 1.09375 -2.640625 C 1.09375 -3.296875 1.15625 -3.875 1.4375 -4.359375 C 1.6875 -4.765625 2.09375 -5.09375 2.59375 -5.09375 C 2.75 -5.09375 3.109375 -5.0625 3.296875 -4.796875 C 2.9375 -4.765625 2.90625 -4.5 2.90625 -4.421875 C 2.90625 -4.171875 3.09375 -4.046875 3.28125 -4.046875 C 3.421875 -4.046875 3.65625 -4.125 3.65625 -4.4375 C 3.65625 -4.90625 3.296875 -5.296875 2.578125 -5.296875 C 1.46875 -5.296875 0.34375 -4.25 0.34375 -2.53125 C 0.34375 -0.359375 1.359375 0.171875 2.125 0.171875 C 2.515625 0.171875 2.921875 0.0625 3.28125 -0.28125 C 3.609375 -0.59375 3.875 -0.921875 3.875 -1.625 C 3.875 -2.65625 3.078125 -3.390625 2.203125 -3.390625 C 1.625 -3.390625 1.28125 -3.03125 1.09375 -2.640625 Z M 2.125 -0.078125 C 1.703125 -0.078125 1.4375 -0.359375 1.328125 -0.59375 C 1.140625 -0.953125 1.125 -1.484375 1.125 -1.796875 C 1.125 -2.578125 1.546875 -3.171875 2.171875 -3.171875 C 2.5625 -3.171875 2.8125 -2.96875 2.953125 -2.6875 C 3.125 -2.390625 3.125 -2.03125 3.125 -1.625 C 3.125 -1.21875 3.125 -0.875 2.96875 -0.578125 C 2.75 -0.21875 2.484375 -0.078125 2.125 -0.078125 Z M 2.125 -0.078125 "/>
</g>
<g id="glyph-2-9">
<path d="M 3.375 -5.515625 C 3.328125 -5.625 3.3125 -5.6875 3.171875 -5.6875 C 3.03125 -5.6875 3 -5.625 2.96875 -5.515625 L 1.1875 -0.828125 C 1.109375 -0.609375 0.9375 -0.265625 0.28125 -0.265625 L 0.28125 0 C 0.546875 -0.03125 0.96875 -0.03125 1.109375 -0.03125 C 1.359375 -0.03125 1.609375 -0.03125 1.984375 0 L 1.984375 -0.265625 C 1.640625 -0.265625 1.4375 -0.4375 1.4375 -0.65625 C 1.4375 -0.71875 1.4375 -0.734375 1.46875 -0.828125 L 1.84375 -1.828125 L 4.015625 -1.828125 L 4.46875 -0.640625 C 4.5 -0.546875 4.5 -0.515625 4.5 -0.5 C 4.5 -0.265625 4.09375 -0.265625 3.859375 -0.265625 L 3.859375 0 C 4.546875 -0.03125 4.5625 -0.03125 5 -0.03125 C 5.4375 -0.03125 5.59375 -0.03125 6.046875 0 L 6.046875 -0.265625 L 5.90625 -0.265625 C 5.40625 -0.265625 5.328125 -0.328125 5.234375 -0.59375 Z M 2.9375 -4.6875 L 3.90625 -2.09375 L 1.9375 -2.09375 Z M 2.9375 -4.6875 "/>
</g>
<g id="glyph-2-10">
<path d="M 2.9375 -3.15625 C 2.703125 -3.09375 2.671875 -2.90625 2.671875 -2.8125 C 2.671875 -2.59375 2.828125 -2.4375 3.046875 -2.4375 C 3.265625 -2.4375 3.421875 -2.578125 3.421875 -2.828125 C 3.421875 -3.3125 2.890625 -3.546875 2.140625 -3.546875 C 1.03125 -3.546875 0.28125 -2.671875 0.28125 -1.71875 C 0.28125 -0.703125 1.109375 0.078125 2.109375 0.078125 C 3.234375 0.078125 3.515625 -0.859375 3.515625 -0.953125 C 3.515625 -1.046875 3.40625 -1.046875 3.390625 -1.046875 C 3.328125 -1.046875 3.296875 -1.046875 3.265625 -0.96875 C 3.21875 -0.796875 2.984375 -0.171875 2.1875 -0.171875 C 1.703125 -0.171875 0.984375 -0.546875 0.984375 -1.734375 C 0.984375 -2.875 1.578125 -3.3125 2.15625 -3.3125 C 2.234375 -3.3125 2.65625 -3.3125 2.9375 -3.15625 Z M 2.9375 -3.15625 "/>
</g>
<g id="glyph-2-11">
<path d="M 3.875 -2.421875 C 3.875 -3.078125 3.5625 -3.515625 2.734375 -3.515625 C 2.03125 -3.515625 1.671875 -3.0625 1.515625 -2.8125 L 1.515625 -5.53125 L 0.328125 -5.4375 L 0.328125 -5.171875 C 0.875 -5.171875 0.9375 -5.125 0.9375 -4.734375 L 0.9375 -0.625 C 0.9375 -0.265625 0.84375 -0.265625 0.328125 -0.265625 L 0.328125 0 C 0.671875 -0.03125 1.015625 -0.03125 1.234375 -0.03125 C 1.46875 -0.03125 1.796875 -0.03125 2.140625 0 L 2.140625 -0.265625 C 1.640625 -0.265625 1.53125 -0.265625 1.53125 -0.625 L 1.53125 -2.0625 C 1.53125 -2.90625 2.171875 -3.296875 2.65625 -3.296875 C 3.140625 -3.296875 3.265625 -2.953125 3.265625 -2.453125 L 3.265625 -0.625 C 3.265625 -0.265625 3.171875 -0.265625 2.65625 -0.265625 L 2.65625 0 C 3 -0.03125 3.359375 -0.03125 3.5625 -0.03125 C 3.796875 -0.03125 4.140625 -0.03125 4.484375 0 L 4.484375 -0.265625 C 3.96875 -0.265625 3.875 -0.265625 3.875 -0.625 Z M 3.875 -2.421875 "/>
</g>
<g id="glyph-2-12">
<path d="M 1.546875 -4.90625 C 1.546875 -5.140625 1.375 -5.359375 1.109375 -5.359375 C 0.875 -5.359375 0.671875 -5.171875 0.671875 -4.921875 C 0.671875 -4.640625 0.90625 -4.46875 1.109375 -4.46875 C 1.390625 -4.46875 1.546875 -4.703125 1.546875 -4.90625 Z M 0.359375 -3.421875 L 0.359375 -3.15625 C 0.875 -3.15625 0.9375 -3.109375 0.9375 -2.71875 L 0.9375 -0.625 C 0.9375 -0.265625 0.84375 -0.265625 0.328125 -0.265625 L 0.328125 0 C 0.640625 -0.03125 1.09375 -0.03125 1.21875 -0.03125 C 1.3125 -0.03125 1.796875 -0.03125 2.078125 0 L 2.078125 -0.265625 C 1.546875 -0.265625 1.515625 -0.296875 1.515625 -0.609375 L 1.515625 -3.515625 Z M 0.359375 -3.421875 "/>
</g>
<g id="glyph-2-13">
<path d="M 3.296875 -1.8125 C 3.46875 -1.8125 3.515625 -1.8125 3.515625 -2 C 3.515625 -2.703125 3.125 -3.546875 2 -3.546875 C 1.015625 -3.546875 0.234375 -2.734375 0.234375 -1.75 C 0.234375 -0.71875 1.09375 0.078125 2.109375 0.078125 C 3.109375 0.078125 3.515625 -0.765625 3.515625 -0.953125 C 3.515625 -0.984375 3.484375 -1.0625 3.390625 -1.0625 C 3.296875 -1.0625 3.28125 -1.015625 3.265625 -0.96875 C 2.984375 -0.1875 2.296875 -0.171875 2.15625 -0.171875 C 1.796875 -0.171875 1.421875 -0.328125 1.1875 -0.703125 C 0.953125 -1.0625 0.953125 -1.578125 0.953125 -1.8125 Z M 0.953125 -2.03125 C 1.03125 -3.140625 1.703125 -3.328125 2 -3.328125 C 2.9375 -3.328125 2.96875 -2.203125 2.96875 -2.03125 Z M 0.953125 -2.03125 "/>
</g>
<g id="glyph-2-14">
<path d="M 3.53125 -2.609375 C 3.71875 -3.0625 4 -3.15625 4.28125 -3.171875 L 4.28125 -3.4375 C 4.015625 -3.40625 4 -3.40625 3.671875 -3.40625 C 3.59375 -3.40625 3.21875 -3.40625 2.96875 -3.4375 L 2.96875 -3.171875 C 3.25 -3.15625 3.328125 -2.984375 3.328125 -2.84375 C 3.328125 -2.765625 3.3125 -2.71875 3.28125 -2.65625 L 2.421875 -0.640625 L 1.46875 -2.8125 C 1.421875 -2.90625 1.421875 -2.953125 1.421875 -2.96875 C 1.421875 -3.171875 1.71875 -3.171875 1.84375 -3.171875 L 1.84375 -3.4375 C 1.5 -3.40625 1.125 -3.40625 0.984375 -3.40625 C 0.8125 -3.40625 0.4375 -3.40625 0.171875 -3.4375 L 0.171875 -3.171875 C 0.65625 -3.171875 0.703125 -3.125 0.828125 -2.859375 L 2.015625 -0.09375 C 2.078125 0.03125 2.125 0.078125 2.234375 0.078125 C 2.34375 0.078125 2.40625 0.015625 2.4375 -0.078125 Z M 3.53125 -2.609375 "/>
</g>
<g id="glyph-2-15">
<path d="M 2.625 -5.4375 L 2.625 -5.171875 C 3.15625 -5.171875 3.234375 -5.125 3.234375 -4.734375 L 3.234375 -3.046875 C 2.953125 -3.359375 2.578125 -3.515625 2.15625 -3.515625 C 1.15625 -3.515625 0.28125 -2.734375 0.28125 -1.71875 C 0.28125 -0.734375 1.078125 0.078125 2.078125 0.078125 C 2.546875 0.078125 2.9375 -0.140625 3.203125 -0.421875 L 3.203125 0.078125 L 4.421875 0 L 4.421875 -0.265625 C 3.875 -0.265625 3.8125 -0.3125 3.8125 -0.703125 L 3.8125 -5.53125 Z M 3.203125 -0.984375 C 3.203125 -0.84375 3.203125 -0.8125 3.078125 -0.65625 C 2.859375 -0.328125 2.5 -0.140625 2.125 -0.140625 C 1.75 -0.140625 1.4375 -0.328125 1.25 -0.625 C 1.03125 -0.9375 0.984375 -1.328125 0.984375 -1.703125 C 0.984375 -2.171875 1.0625 -2.5 1.25 -2.765625 C 1.4375 -3.0625 1.796875 -3.296875 2.203125 -3.296875 C 2.578125 -3.296875 2.96875 -3.09375 3.203125 -2.6875 Z M 3.203125 -0.984375 "/>
</g>
<g id="glyph-2-16">
<path d="M 3.875 -2.421875 C 3.875 -3.078125 3.5625 -3.515625 2.734375 -3.515625 C 1.9375 -3.515625 1.578125 -2.9375 1.484375 -2.75 L 1.484375 -3.515625 L 0.328125 -3.421875 L 0.328125 -3.15625 C 0.875 -3.15625 0.9375 -3.109375 0.9375 -2.71875 L 0.9375 -0.625 C 0.9375 -0.265625 0.84375 -0.265625 0.328125 -0.265625 L 0.328125 0 C 0.671875 -0.03125 1.015625 -0.03125 1.234375 -0.03125 C 1.46875 -0.03125 1.796875 -0.03125 2.140625 0 L 2.140625 -0.265625 C 1.640625 -0.265625 1.53125 -0.265625 1.53125 -0.625 L 1.53125 -2.0625 C 1.53125 -2.90625 2.171875 -3.296875 2.65625 -3.296875 C 3.140625 -3.296875 3.265625 -2.953125 3.265625 -2.453125 L 3.265625 -0.625 C 3.265625 -0.265625 3.171875 -0.265625 2.65625 -0.265625 L 2.65625 0 C 3 -0.03125 3.359375 -0.03125 3.5625 -0.03125 C 3.796875 -0.03125 4.140625 -0.03125 4.484375 0 L 4.484375 -0.265625 C 3.96875 -0.265625 3.875 -0.265625 3.875 -0.625 Z M 3.875 -2.421875 "/>
</g>
<g id="glyph-2-17">
<path d="M 1.484375 -3.171875 L 2.671875 -3.171875 L 2.671875 -3.4375 L 1.484375 -3.4375 L 1.484375 -4.90625 L 1.234375 -4.90625 C 1.234375 -4.171875 0.90625 -3.421875 0.15625 -3.390625 L 0.15625 -3.171875 L 0.875 -3.171875 L 0.875 -1 C 0.875 -0.0625 1.59375 0.078125 1.953125 0.078125 C 2.5 0.078125 2.8125 -0.390625 2.8125 -1 L 2.8125 -1.4375 L 2.5625 -1.4375 L 2.5625 -1.015625 C 2.5625 -0.46875 2.3125 -0.171875 2.015625 -0.171875 C 1.484375 -0.171875 1.484375 -0.859375 1.484375 -0.984375 Z M 1.484375 -3.171875 "/>
</g>
<g id="glyph-2-18">
<path d="M 1.46875 -1.8125 C 1.46875 -2.421875 1.71875 -3.28125 2.484375 -3.296875 C 2.4375 -3.265625 2.34375 -3.203125 2.34375 -3.015625 C 2.34375 -2.765625 2.546875 -2.65625 2.703125 -2.65625 C 2.890625 -2.65625 3.0625 -2.78125 3.0625 -3.015625 C 3.0625 -3.296875 2.8125 -3.515625 2.453125 -3.515625 C 1.9375 -3.515625 1.578125 -3.125 1.421875 -2.671875 L 1.40625 -2.671875 L 1.40625 -3.515625 L 0.28125 -3.421875 L 0.28125 -3.15625 C 0.828125 -3.15625 0.890625 -3.109375 0.890625 -2.71875 L 0.890625 -0.625 C 0.890625 -0.265625 0.78125 -0.265625 0.28125 -0.265625 L 0.28125 0 C 0.59375 -0.03125 1.03125 -0.03125 1.21875 -0.03125 C 1.6875 -0.03125 1.703125 -0.03125 2.21875 0 L 2.21875 -0.265625 L 2.0625 -0.265625 C 1.484375 -0.265625 1.46875 -0.34375 1.46875 -0.640625 Z M 1.46875 -1.8125 "/>
</g>
<g id="glyph-2-19">
<path d="M 3.53125 -2.625 C 3.734375 -3.078125 4.03125 -3.15625 4.28125 -3.171875 L 4.28125 -3.4375 C 4.015625 -3.40625 4 -3.40625 3.65625 -3.40625 C 3.625 -3.40625 3.203125 -3.40625 2.96875 -3.4375 L 2.96875 -3.171875 C 3.203125 -3.15625 3.3125 -3.03125 3.3125 -2.84375 C 3.3125 -2.796875 3.3125 -2.734375 3.265625 -2.640625 L 2.421875 -0.71875 L 1.484375 -2.8125 C 1.4375 -2.921875 1.4375 -2.9375 1.4375 -2.96875 C 1.4375 -3.15625 1.6875 -3.171875 1.859375 -3.171875 L 1.859375 -3.4375 C 1.5 -3.40625 1.15625 -3.40625 0.984375 -3.40625 C 0.8125 -3.40625 0.4375 -3.40625 0.171875 -3.4375 L 0.171875 -3.171875 C 0.59375 -3.171875 0.703125 -3.15625 0.84375 -2.859375 L 2.09375 0 C 1.734375 0.84375 1.5 1.40625 0.9375 1.40625 C 0.734375 1.40625 0.609375 1.3125 0.609375 1.3125 C 0.671875 1.296875 0.859375 1.203125 0.859375 0.96875 C 0.859375 0.75 0.6875 0.625 0.515625 0.625 C 0.34375 0.625 0.171875 0.734375 0.171875 0.984375 C 0.171875 1.328125 0.515625 1.625 0.9375 1.625 C 1.65625 1.625 2.03125 0.765625 2.0625 0.6875 Z M 3.53125 -2.625 "/>
</g>
<g id="glyph-2-20">
<path d="M 3.984375 -1.703125 C 3.984375 -2.6875 3.15625 -3.546875 2.109375 -3.546875 C 1.0625 -3.546875 0.234375 -2.6875 0.234375 -1.703125 C 0.234375 -0.703125 1.09375 0.078125 2.109375 0.078125 C 3.140625 0.078125 3.984375 -0.703125 3.984375 -1.703125 Z M 2.109375 -0.171875 C 1.6875 -0.171875 1.34375 -0.375 1.171875 -0.65625 C 0.96875 -0.984375 0.953125 -1.375 0.953125 -1.765625 C 0.953125 -2.078125 0.953125 -2.546875 1.1875 -2.890625 C 1.40625 -3.171875 1.734375 -3.328125 2.109375 -3.328125 C 2.53125 -3.328125 2.875 -3.125 3.046875 -2.859375 C 3.265625 -2.515625 3.28125 -2.09375 3.28125 -1.765625 C 3.28125 -1.40625 3.265625 -0.96875 3.03125 -0.625 C 2.828125 -0.3125 2.46875 -0.171875 2.109375 -0.171875 Z M 2.109375 -0.171875 "/>
</g>
<g id="glyph-2-21">
<path d="M 1.484375 -0.125 C 1.484375 0.125 1.484375 0.765625 0.890625 1.34375 C 0.859375 1.359375 0.84375 1.375 0.84375 1.421875 C 0.84375 1.5 0.90625 1.546875 0.953125 1.546875 C 1.046875 1.546875 1.71875 0.921875 1.71875 -0.03125 C 1.71875 -0.46875 1.546875 -0.890625 1.171875 -0.890625 C 0.90625 -0.890625 0.734375 -0.671875 0.734375 -0.453125 C 0.734375 -0.203125 0.90625 0 1.171875 0 C 1.359375 0 1.46875 -0.09375 1.484375 -0.125 Z M 1.484375 -0.125 "/>
</g>
<g id="glyph-2-22">
<path d="M 3.34375 -2.375 C 3.34375 -3.15625 2.59375 -3.546875 1.859375 -3.546875 C 1.203125 -3.546875 0.609375 -3.296875 0.609375 -2.765625 C 0.609375 -2.53125 0.78125 -2.390625 0.984375 -2.390625 C 1.21875 -2.390625 1.359375 -2.546875 1.359375 -2.765625 C 1.359375 -2.953125 1.25 -3.09375 1.0625 -3.125 C 1.359375 -3.328125 1.796875 -3.328125 1.84375 -3.328125 C 2.296875 -3.328125 2.734375 -3.015625 2.734375 -2.359375 L 2.734375 -2.125 C 2.28125 -2.09375 1.75 -2.078125 1.1875 -1.84375 C 0.484375 -1.53125 0.34375 -1.078125 0.34375 -0.8125 C 0.34375 -0.125 1.15625 0.078125 1.703125 0.078125 C 2.28125 0.078125 2.640625 -0.25 2.828125 -0.5625 C 2.859375 -0.265625 3.0625 0.046875 3.421875 0.046875 C 3.5 0.046875 4.171875 0.015625 4.171875 -0.71875 L 4.171875 -1.15625 L 3.921875 -1.15625 L 3.921875 -0.71875 C 3.921875 -0.390625 3.8125 -0.265625 3.640625 -0.265625 C 3.34375 -0.265625 3.34375 -0.625 3.34375 -0.71875 Z M 2.734375 -1.125 C 2.734375 -0.34375 2.09375 -0.140625 1.765625 -0.140625 C 1.359375 -0.140625 1 -0.421875 1 -0.8125 C 1 -1.328125 1.5 -1.875 2.734375 -1.90625 Z M 2.734375 -1.125 "/>
</g>
<g id="glyph-2-23">
<path d="M 2.15625 1.984375 L 2.15625 1.625 L 1.359375 1.625 L 1.359375 -5.609375 L 2.15625 -5.609375 L 2.15625 -5.96875 L 0.984375 -5.96875 L 0.984375 1.984375 Z M 2.15625 1.984375 "/>
</g>
<g id="glyph-2-24">
<path d="M 1.359375 -5.96875 L 0.1875 -5.96875 L 0.1875 -5.609375 L 0.984375 -5.609375 L 0.984375 1.625 L 0.1875 1.625 L 0.1875 1.984375 L 1.359375 1.984375 Z M 1.359375 -5.96875 "/>
</g>
<g id="glyph-3-0">
<path d="M 3.25 -1.5 C 3.25 -2.25 2.640625 -2.84375 1.90625 -2.84375 C 1.15625 -2.84375 0.5625 -2.25 0.5625 -1.5 C 0.5625 -0.734375 1.15625 -0.140625 1.90625 -0.140625 C 2.640625 -0.140625 3.25 -0.734375 3.25 -1.5 Z M 1.90625 -0.453125 C 1.328125 -0.453125 0.859375 -0.90625 0.859375 -1.5 C 0.859375 -2.078125 1.328125 -2.53125 1.90625 -2.53125 C 2.484375 -2.53125 2.9375 -2.078125 2.9375 -1.5 C 2.9375 -0.90625 2.484375 -0.453125 1.90625 -0.453125 Z M 1.90625 -0.453125 "/>
</g>
<g id="glyph-4-0">
<path d="M 1.375 -0.078125 C 1.375 0.484375 1.078125 0.8125 0.921875 0.9375 C 0.859375 1 0.84375 1.015625 0.84375 1.046875 C 0.84375 1.109375 0.90625 1.15625 0.953125 1.15625 C 1.03125 1.15625 1.5625 0.6875 1.5625 -0.046875 C 1.5625 -0.4375 1.421875 -0.71875 1.125 -0.71875 C 0.890625 -0.71875 0.765625 -0.53125 0.765625 -0.359375 C 0.765625 -0.1875 0.890625 0 1.140625 0 C 1.21875 0 1.3125 -0.03125 1.375 -0.078125 Z M 1.375 -0.078125 "/>
</g>
<g id="glyph-4-1">
<path d="M 1.609375 -2.328125 L 2.25 -2.328125 C 2.375 -2.328125 2.453125 -2.328125 2.453125 -2.484375 C 2.453125 -2.578125 2.375 -2.578125 2.28125 -2.578125 L 1.671875 -2.578125 L 1.875 -3.390625 C 1.890625 -3.484375 1.890625 -3.515625 1.890625 -3.53125 C 1.890625 -3.671875 1.78125 -3.734375 1.6875 -3.734375 C 1.625 -3.734375 1.46875 -3.6875 1.40625 -3.5 L 1.171875 -2.578125 L 0.53125 -2.578125 C 0.40625 -2.578125 0.40625 -2.5625 0.375 -2.546875 C 0.34375 -2.53125 0.328125 -2.453125 0.328125 -2.421875 C 0.34375 -2.328125 0.390625 -2.328125 0.515625 -2.328125 L 1.109375 -2.328125 L 0.765625 -0.921875 C 0.734375 -0.78125 0.6875 -0.578125 0.6875 -0.515625 C 0.6875 -0.171875 0.984375 0.0625 1.359375 0.0625 C 2.046875 0.0625 2.453125 -0.765625 2.453125 -0.859375 C 2.453125 -0.875 2.4375 -0.9375 2.328125 -0.9375 C 2.25 -0.9375 2.25 -0.90625 2.21875 -0.84375 C 2.015625 -0.390625 1.671875 -0.140625 1.375 -0.140625 C 1.15625 -0.140625 1.15625 -0.359375 1.15625 -0.4375 C 1.15625 -0.515625 1.15625 -0.53125 1.1875 -0.640625 Z M 1.609375 -2.328125 "/>
</g>
<g id="glyph-5-0">
<path d="M 1.984375 -3.171875 C 1.984375 -3.3125 1.96875 -3.3125 1.796875 -3.3125 C 1.453125 -3 0.890625 -3 0.796875 -3 L 0.71875 -3 L 0.71875 -2.78125 L 0.796875 -2.78125 C 0.90625 -2.78125 1.234375 -2.796875 1.53125 -2.921875 L 1.53125 -0.421875 C 1.53125 -0.28125 1.53125 -0.21875 1 -0.21875 L 0.75 -0.21875 L 0.75 0 C 1.015625 -0.015625 1.46875 -0.015625 1.75 -0.015625 C 2.046875 -0.015625 2.484375 -0.015625 2.765625 0 L 2.765625 -0.21875 L 2.515625 -0.21875 C 1.984375 -0.21875 1.984375 -0.28125 1.984375 -0.421875 Z M 1.984375 -3.171875 "/>
</g>
<g id="glyph-6-0">
<path d="M 5.5625 -1.8125 C 5.703125 -1.8125 5.875 -1.8125 5.875 -1.984375 C 5.875 -2.171875 5.703125 -2.171875 5.5625 -2.171875 L 1 -2.171875 C 0.875 -2.171875 0.703125 -2.171875 0.703125 -1.984375 C 0.703125 -1.8125 0.875 -1.8125 1 -1.8125 Z M 5.5625 -1.8125 "/>
</g>
<g id="glyph-7-0">
<path d="M 5.1875 -1.578125 C 5.296875 -1.578125 5.46875 -1.578125 5.46875 -1.734375 C 5.46875 -1.921875 5.296875 -1.921875 5.1875 -1.921875 L 1.03125 -1.921875 C 0.921875 -1.921875 0.75 -1.921875 0.75 -1.75 C 0.75 -1.578125 0.90625 -1.578125 1.03125 -1.578125 Z M 5.1875 -1.578125 "/>
</g>
<g id="glyph-8-0">
<path d="M 3.59375 -2.21875 C 3.59375 -2.984375 3.5 -3.546875 3.1875 -4.03125 C 2.96875 -4.34375 2.53125 -4.625 1.984375 -4.625 C 0.359375 -4.625 0.359375 -2.71875 0.359375 -2.21875 C 0.359375 -1.71875 0.359375 0.140625 1.984375 0.140625 C 3.59375 0.140625 3.59375 -1.71875 3.59375 -2.21875 Z M 1.984375 -0.0625 C 1.65625 -0.0625 1.234375 -0.25 1.09375 -0.8125 C 1 -1.21875 1 -1.796875 1 -2.3125 C 1 -2.828125 1 -3.359375 1.09375 -3.734375 C 1.25 -4.28125 1.6875 -4.4375 1.984375 -4.4375 C 2.359375 -4.4375 2.71875 -4.203125 2.84375 -3.796875 C 2.953125 -3.421875 2.96875 -2.921875 2.96875 -2.3125 C 2.96875 -1.796875 2.96875 -1.28125 2.875 -0.84375 C 2.734375 -0.203125 2.265625 -0.0625 1.984375 -0.0625 Z M 1.984375 -0.0625 "/>
</g>
<g id="glyph-8-1">
<path d="M 2.90625 -2.078125 C 2.90625 -0.34375 2.0625 -0.078125 1.640625 -0.078125 C 1.484375 -0.078125 1.109375 -0.09375 0.921875 -0.3125 C 1.21875 -0.34375 1.234375 -0.578125 1.234375 -0.640625 C 1.234375 -0.8125 1.109375 -0.96875 0.90625 -0.96875 C 0.703125 -0.96875 0.578125 -0.828125 0.578125 -0.625 C 0.578125 -0.15625 0.96875 0.140625 1.640625 0.140625 C 2.640625 0.140625 3.578125 -0.796875 3.578125 -2.296875 C 3.578125 -4.015625 2.8125 -4.625 2 -4.625 C 1.765625 -4.625 1.296875 -4.59375 0.890625 -4.203125 C 0.65625 -3.96875 0.375 -3.703125 0.375 -3.078125 C 0.375 -2.1875 1.078125 -1.53125 1.890625 -1.53125 C 2.453125 -1.53125 2.75 -1.90625 2.90625 -2.21875 Z M 1.9375 -1.734375 C 1.65625 -1.734375 1.40625 -1.8125 1.203125 -2.140625 C 1.046875 -2.390625 1.046875 -2.6875 1.046875 -3.078125 C 1.046875 -3.484375 1.046875 -3.75 1.25 -4.03125 C 1.421875 -4.28125 1.640625 -4.421875 2 -4.421875 C 2.359375 -4.421875 2.578125 -4.203125 2.6875 -4.015625 C 2.875 -3.734375 2.890625 -3.234375 2.890625 -3 C 2.890625 -2.09375 2.375 -1.734375 1.9375 -1.734375 Z M 1.9375 -1.734375 "/>
</g>
<g id="glyph-8-2">
<path d="M 3.734375 -4.203125 C 3.796875 -4.296875 3.796875 -4.3125 3.796875 -4.484375 L 1.96875 -4.484375 C 1.6875 -4.484375 1.609375 -4.5 1.359375 -4.515625 C 1 -4.546875 0.984375 -4.59375 0.96875 -4.703125 L 0.734375 -4.703125 L 0.484375 -3.21875 L 0.71875 -3.21875 C 0.734375 -3.328125 0.8125 -3.78125 0.921875 -3.859375 C 0.96875 -3.890625 1.546875 -3.890625 1.640625 -3.890625 L 3.15625 -3.890625 C 2.9375 -3.609375 2.578125 -3.171875 2.4375 -2.96875 C 1.53125 -1.78125 1.4375 -0.671875 1.4375 -0.265625 C 1.4375 -0.1875 1.4375 0.140625 1.765625 0.140625 C 2.109375 0.140625 2.109375 -0.171875 2.109375 -0.265625 L 2.109375 -0.546875 C 2.109375 -1.890625 2.390625 -2.515625 2.6875 -2.890625 Z M 3.734375 -4.203125 "/>
</g>
<g id="glyph-8-3">
<path d="M 1.078125 -3.890625 C 1.4375 -3.796875 1.640625 -3.796875 1.75 -3.796875 C 2.671875 -3.796875 3.21875 -4.421875 3.21875 -4.53125 C 3.21875 -4.609375 3.171875 -4.625 3.140625 -4.625 C 3.125 -4.625 3.109375 -4.625 3.078125 -4.609375 C 2.90625 -4.546875 2.546875 -4.40625 2.03125 -4.40625 C 1.828125 -4.40625 1.46875 -4.421875 1.015625 -4.59375 C 0.9375 -4.625 0.921875 -4.625 0.921875 -4.625 C 0.828125 -4.625 0.828125 -4.546875 0.828125 -4.4375 L 0.828125 -2.390625 C 0.828125 -2.265625 0.828125 -2.1875 0.9375 -2.1875 C 1 -2.1875 1.015625 -2.1875 1.078125 -2.28125 C 1.375 -2.65625 1.8125 -2.71875 2.046875 -2.71875 C 2.46875 -2.71875 2.65625 -2.390625 2.6875 -2.328125 C 2.8125 -2.09375 2.859375 -1.828125 2.859375 -1.421875 C 2.859375 -1.21875 2.859375 -0.8125 2.640625 -0.5 C 2.46875 -0.25 2.171875 -0.078125 1.828125 -0.078125 C 1.375 -0.078125 0.90625 -0.328125 0.734375 -0.796875 C 1 -0.78125 1.140625 -0.953125 1.140625 -1.140625 C 1.140625 -1.4375 0.875 -1.484375 0.78125 -1.484375 C 0.78125 -1.484375 0.4375 -1.484375 0.4375 -1.109375 C 0.4375 -0.484375 1.015625 0.140625 1.84375 0.140625 C 2.734375 0.140625 3.515625 -0.515625 3.515625 -1.40625 C 3.515625 -2.1875 2.921875 -2.90625 2.0625 -2.90625 C 1.75 -2.90625 1.390625 -2.84375 1.078125 -2.578125 Z M 1.078125 -3.890625 "/>
</g>
<g id="glyph-8-4">
<path d="M 2.328125 -4.4375 C 2.328125 -4.625 2.328125 -4.625 2.125 -4.625 C 1.671875 -4.1875 1.046875 -4.1875 0.765625 -4.1875 L 0.765625 -3.9375 C 0.921875 -3.9375 1.390625 -3.9375 1.765625 -4.125 L 1.765625 -0.578125 C 1.765625 -0.34375 1.765625 -0.25 1.078125 -0.25 L 0.8125 -0.25 L 0.8125 0 C 0.9375 0 1.796875 -0.03125 2.046875 -0.03125 C 2.265625 -0.03125 3.140625 0 3.296875 0 L 3.296875 -0.25 L 3.03125 -0.25 C 2.328125 -0.25 2.328125 -0.34375 2.328125 -0.578125 Z M 2.328125 -4.4375 "/>
</g>
<g id="glyph-8-5">
<path d="M 2.46875 -2.515625 C 3.015625 -2.78125 3.359375 -3.109375 3.359375 -3.59375 C 3.359375 -4.265625 2.65625 -4.625 1.984375 -4.625 C 1.21875 -4.625 0.59375 -4.125 0.59375 -3.46875 C 0.59375 -3.140625 0.75 -2.90625 0.875 -2.765625 C 1 -2.609375 1.046875 -2.578125 1.453125 -2.34375 C 1.0625 -2.171875 0.375 -1.796875 0.375 -1.0625 C 0.375 -0.296875 1.171875 0.140625 1.96875 0.140625 C 2.859375 0.140625 3.578125 -0.421875 3.578125 -1.171875 C 3.578125 -1.640625 3.3125 -2.03125 2.90625 -2.265625 C 2.8125 -2.328125 2.578125 -2.453125 2.46875 -2.515625 Z M 1.34375 -3.171875 C 1.15625 -3.28125 0.96875 -3.46875 0.96875 -3.734375 C 0.96875 -4.171875 1.46875 -4.421875 1.96875 -4.421875 C 2.515625 -4.421875 3 -4.078125 3 -3.59375 C 3 -2.96875 2.265625 -2.65625 2.265625 -2.65625 C 2.25 -2.65625 2.234375 -2.65625 2.1875 -2.6875 Z M 1.671875 -2.203125 L 2.640625 -1.65625 C 2.8125 -1.546875 3.15625 -1.34375 3.15625 -0.9375 C 3.15625 -0.40625 2.578125 -0.078125 1.984375 -0.078125 C 1.34375 -0.078125 0.796875 -0.5 0.796875 -1.0625 C 0.796875 -1.578125 1.171875 -1.984375 1.671875 -2.203125 Z M 1.671875 -2.203125 "/>
</g>
<g id="glyph-8-6">
<path d="M 1.90625 -2.328125 C 2.453125 -2.328125 2.84375 -1.953125 2.84375 -1.203125 C 2.84375 -0.34375 2.328125 -0.078125 1.9375 -0.078125 C 1.65625 -0.078125 1.03125 -0.15625 0.75 -0.578125 C 1.078125 -0.578125 1.15625 -0.8125 1.15625 -0.96875 C 1.15625 -1.1875 0.984375 -1.34375 0.765625 -1.34375 C 0.578125 -1.34375 0.375 -1.21875 0.375 -0.9375 C 0.375 -0.28125 1.09375 0.140625 1.9375 0.140625 C 2.90625 0.140625 3.578125 -0.515625 3.578125 -1.203125 C 3.578125 -1.75 3.140625 -2.296875 2.375 -2.453125 C 3.09375 -2.71875 3.359375 -3.234375 3.359375 -3.671875 C 3.359375 -4.21875 2.734375 -4.625 1.953125 -4.625 C 1.1875 -4.625 0.59375 -4.25 0.59375 -3.6875 C 0.59375 -3.453125 0.75 -3.328125 0.953125 -3.328125 C 1.171875 -3.328125 1.3125 -3.484375 1.3125 -3.671875 C 1.3125 -3.875 1.171875 -4.03125 0.953125 -4.046875 C 1.203125 -4.34375 1.671875 -4.421875 1.9375 -4.421875 C 2.25 -4.421875 2.6875 -4.265625 2.6875 -3.671875 C 2.6875 -3.375 2.59375 -3.046875 2.40625 -2.84375 C 2.1875 -2.578125 1.984375 -2.5625 1.640625 -2.53125 C 1.46875 -2.515625 1.453125 -2.515625 1.421875 -2.515625 C 1.40625 -2.515625 1.34375 -2.5 1.34375 -2.421875 C 1.34375 -2.328125 1.40625 -2.328125 1.53125 -2.328125 Z M 1.90625 -2.328125 "/>
</g>
<g id="glyph-9-0">
<path d="M 1.578125 -0.390625 C 1.578125 -0.640625 1.375 -0.796875 1.1875 -0.796875 C 0.953125 -0.796875 0.78125 -0.609375 0.78125 -0.40625 C 0.78125 -0.15625 0.984375 0 1.171875 0 C 1.40625 0 1.578125 -0.1875 1.578125 -0.390625 Z M 1.578125 -0.390625 "/>
</g>
<g id="glyph-10-0">
<path d="M -5.40625 -5.640625 C -5.53125 -5.640625 -5.609375 -5.640625 -5.609375 -5.53125 C -5.609375 -5.46875 -5.609375 -5.46875 -5.5 -5.390625 L -4.90625 -4.984375 C -5.21875 -4.703125 -5.609375 -4.171875 -5.609375 -3.40625 C -5.609375 -1.8125 -4.328125 -0.46875 -2.71875 -0.46875 C -1.109375 -0.46875 0.171875 -1.796875 0.171875 -3.421875 C 0.171875 -4.75 -0.890625 -5.640625 -1.859375 -5.640625 C -1.9375 -5.640625 -2.015625 -5.640625 -2.015625 -5.5 C -2.015625 -5.421875 -1.96875 -5.390625 -1.890625 -5.390625 C -0.671875 -5.328125 -0.09375 -4.328125 -0.09375 -3.484375 C -0.09375 -2.8125 -0.515625 -1.296875 -2.71875 -1.296875 C -4.875 -1.296875 -5.34375 -2.734375 -5.34375 -3.484375 C -5.34375 -4.234375 -4.8125 -5.15625 -3.4375 -5.375 C -3.375 -5.375 -3.328125 -5.390625 -3.328125 -5.5 C -3.328125 -5.640625 -3.375 -5.640625 -3.53125 -5.640625 Z M -5.40625 -5.640625 "/>
</g>
<g id="glyph-10-1">
<path d="M -1.703125 -3.984375 C -2.6875 -3.984375 -3.546875 -3.15625 -3.546875 -2.109375 C -3.546875 -1.0625 -2.6875 -0.234375 -1.703125 -0.234375 C -0.703125 -0.234375 0.078125 -1.09375 0.078125 -2.109375 C 0.078125 -3.140625 -0.703125 -3.984375 -1.703125 -3.984375 Z M -0.171875 -2.109375 C -0.171875 -1.6875 -0.375 -1.34375 -0.65625 -1.171875 C -0.984375 -0.96875 -1.375 -0.953125 -1.765625 -0.953125 C -2.078125 -0.953125 -2.546875 -0.953125 -2.890625 -1.1875 C -3.171875 -1.40625 -3.328125 -1.734375 -3.328125 -2.109375 C -3.328125 -2.53125 -3.125 -2.875 -2.859375 -3.046875 C -2.515625 -3.265625 -2.09375 -3.28125 -1.765625 -3.28125 C -1.40625 -3.28125 -0.96875 -3.265625 -0.625 -3.03125 C -0.3125 -2.828125 -0.171875 -2.46875 -0.171875 -2.109375 Z M -0.171875 -2.109375 "/>
</g>
<g id="glyph-10-2">
<path d="M -2.421875 -3.875 C -3.078125 -3.875 -3.515625 -3.5625 -3.515625 -2.734375 C -3.515625 -1.9375 -2.9375 -1.578125 -2.75 -1.484375 L -3.515625 -1.484375 L -3.421875 -0.328125 L -3.15625 -0.328125 C -3.15625 -0.875 -3.109375 -0.9375 -2.71875 -0.9375 L -0.625 -0.9375 C -0.265625 -0.9375 -0.265625 -0.84375 -0.265625 -0.328125 L 0 -0.328125 C -0.03125 -0.671875 -0.03125 -1.015625 -0.03125 -1.234375 C -0.03125 -1.46875 -0.03125 -1.796875 0 -2.140625 L -0.265625 -2.140625 C -0.265625 -1.640625 -0.265625 -1.53125 -0.625 -1.53125 L -2.0625 -1.53125 C -2.90625 -1.53125 -3.296875 -2.171875 -3.296875 -2.65625 C -3.296875 -3.140625 -2.953125 -3.265625 -2.453125 -3.265625 L -0.625 -3.265625 C -0.265625 -3.265625 -0.265625 -3.171875 -0.265625 -2.65625 L 0 -2.65625 C -0.03125 -3 -0.03125 -3.359375 -0.03125 -3.5625 C -0.03125 -3.796875 -0.03125 -4.140625 0 -4.484375 L -0.265625 -4.484375 C -0.265625 -3.96875 -0.265625 -3.875 -0.625 -3.875 Z M -2.421875 -3.875 "/>
</g>
<g id="glyph-10-3">
<path d="M -3.171875 -1.484375 L -3.171875 -2.671875 L -3.4375 -2.671875 L -3.4375 -1.484375 L -4.90625 -1.484375 L -4.90625 -1.234375 C -4.171875 -1.234375 -3.421875 -0.90625 -3.390625 -0.15625 L -3.171875 -0.15625 L -3.171875 -0.875 L -1 -0.875 C -0.0625 -0.875 0.078125 -1.59375 0.078125 -1.953125 C 0.078125 -2.5 -0.390625 -2.8125 -1 -2.8125 L -1.4375 -2.8125 L -1.4375 -2.5625 L -1.015625 -2.5625 C -0.46875 -2.5625 -0.171875 -2.3125 -0.171875 -2.015625 C -0.171875 -1.484375 -0.859375 -1.484375 -0.984375 -1.484375 Z M -3.171875 -1.484375 "/>
</g>
<g id="glyph-10-4">
<path d="M -2.375 -3.34375 C -3.15625 -3.34375 -3.546875 -2.59375 -3.546875 -1.859375 C -3.546875 -1.203125 -3.296875 -0.609375 -2.765625 -0.609375 C -2.53125 -0.609375 -2.390625 -0.78125 -2.390625 -0.984375 C -2.390625 -1.21875 -2.546875 -1.359375 -2.765625 -1.359375 C -2.953125 -1.359375 -3.09375 -1.25 -3.125 -1.0625 C -3.328125 -1.359375 -3.328125 -1.796875 -3.328125 -1.84375 C -3.328125 -2.296875 -3.015625 -2.734375 -2.359375 -2.734375 L -2.125 -2.734375 C -2.09375 -2.28125 -2.078125 -1.75 -1.84375 -1.1875 C -1.53125 -0.484375 -1.078125 -0.34375 -0.8125 -0.34375 C -0.125 -0.34375 0.078125 -1.15625 0.078125 -1.703125 C 0.078125 -2.28125 -0.25 -2.640625 -0.5625 -2.828125 C -0.265625 -2.859375 0.046875 -3.0625 0.046875 -3.421875 C 0.046875 -3.5 0.015625 -4.171875 -0.71875 -4.171875 L -1.15625 -4.171875 L -1.15625 -3.921875 L -0.71875 -3.921875 C -0.390625 -3.921875 -0.265625 -3.8125 -0.265625 -3.640625 C -0.265625 -3.34375 -0.625 -3.34375 -0.71875 -3.34375 Z M -1.125 -2.734375 C -0.34375 -2.734375 -0.140625 -2.09375 -0.140625 -1.765625 C -0.140625 -1.359375 -0.421875 -1 -0.8125 -1 C -1.328125 -1 -1.875 -1.5 -1.90625 -2.734375 Z M -1.125 -2.734375 "/>
</g>
<g id="glyph-10-5">
<path d="M -3.15625 -2.9375 C -3.09375 -2.703125 -2.90625 -2.671875 -2.8125 -2.671875 C -2.59375 -2.671875 -2.4375 -2.828125 -2.4375 -3.046875 C -2.4375 -3.265625 -2.578125 -3.421875 -2.828125 -3.421875 C -3.3125 -3.421875 -3.546875 -2.890625 -3.546875 -2.140625 C -3.546875 -1.03125 -2.671875 -0.28125 -1.71875 -0.28125 C -0.703125 -0.28125 0.078125 -1.109375 0.078125 -2.109375 C 0.078125 -3.234375 -0.859375 -3.515625 -0.953125 -3.515625 C -1.046875 -3.515625 -1.046875 -3.40625 -1.046875 -3.390625 C -1.046875 -3.328125 -1.046875 -3.296875 -0.96875 -3.265625 C -0.796875 -3.21875 -0.171875 -2.984375 -0.171875 -2.1875 C -0.171875 -1.703125 -0.546875 -0.984375 -1.734375 -0.984375 C -2.875 -0.984375 -3.3125 -1.578125 -3.3125 -2.15625 C -3.3125 -2.234375 -3.3125 -2.65625 -3.15625 -2.9375 Z M -3.15625 -2.9375 "/>
</g>
<g id="glyph-10-6">
<path d="M -1.8125 -1.46875 C -2.421875 -1.46875 -3.28125 -1.71875 -3.296875 -2.484375 C -3.265625 -2.4375 -3.203125 -2.34375 -3.015625 -2.34375 C -2.765625 -2.34375 -2.65625 -2.546875 -2.65625 -2.703125 C -2.65625 -2.890625 -2.78125 -3.0625 -3.015625 -3.0625 C -3.296875 -3.0625 -3.515625 -2.8125 -3.515625 -2.453125 C -3.515625 -1.9375 -3.125 -1.578125 -2.671875 -1.421875 L -2.671875 -1.40625 L -3.515625 -1.40625 L -3.421875 -0.28125 L -3.15625 -0.28125 C -3.15625 -0.828125 -3.109375 -0.890625 -2.71875 -0.890625 L -0.625 -0.890625 C -0.265625 -0.890625 -0.265625 -0.78125 -0.265625 -0.28125 L 0 -0.28125 C -0.03125 -0.59375 -0.03125 -1.03125 -0.03125 -1.21875 C -0.03125 -1.6875 -0.03125 -1.703125 0 -2.21875 L -0.265625 -2.21875 L -0.265625 -2.0625 C -0.265625 -1.484375 -0.34375 -1.46875 -0.640625 -1.46875 Z M -1.8125 -1.46875 "/>
</g>
<g id="glyph-10-7">
<path d="M -1.8125 -3.296875 C -1.8125 -3.46875 -1.8125 -3.515625 -2 -3.515625 C -2.703125 -3.515625 -3.546875 -3.125 -3.546875 -2 C -3.546875 -1.015625 -2.734375 -0.234375 -1.75 -0.234375 C -0.71875 -0.234375 0.078125 -1.09375 0.078125 -2.109375 C 0.078125 -3.109375 -0.765625 -3.515625 -0.953125 -3.515625 C -0.984375 -3.515625 -1.0625 -3.484375 -1.0625 -3.390625 C -1.0625 -3.296875 -1.015625 -3.28125 -0.96875 -3.265625 C -0.1875 -2.984375 -0.171875 -2.296875 -0.171875 -2.15625 C -0.171875 -1.796875 -0.328125 -1.421875 -0.703125 -1.1875 C -1.0625 -0.953125 -1.578125 -0.953125 -1.8125 -0.953125 Z M -2.03125 -0.953125 C -3.140625 -1.03125 -3.328125 -1.703125 -3.328125 -2 C -3.328125 -2.9375 -2.203125 -2.96875 -2.03125 -2.96875 Z M -2.03125 -0.953125 "/>
</g>
<g id="glyph-10-8">
<path d="M -3.34375 -2.84375 C -3.46875 -2.84375 -3.546875 -2.84375 -3.546875 -2.734375 C -3.546875 -2.6875 -3.546875 -2.671875 -3.421875 -2.546875 C -3.421875 -2.53125 -3.34375 -2.453125 -3.34375 -2.4375 C -3.34375 -2.421875 -3.34375 -2.40625 -3.375 -2.359375 C -3.46875 -2.234375 -3.546875 -2 -3.546875 -1.640625 C -3.546875 -0.53125 -2.953125 -0.28125 -2.5625 -0.28125 C -2.171875 -0.28125 -1.9375 -0.578125 -1.90625 -0.59375 C -1.671875 -0.921875 -1.640625 -1.09375 -1.546875 -1.640625 C -1.46875 -2.015625 -1.359375 -2.625 -0.828125 -2.625 C -0.515625 -2.625 -0.140625 -2.421875 -0.140625 -1.6875 C -0.140625 -0.875 -0.765625 -0.640625 -1.1875 -0.546875 C -1.296875 -0.515625 -1.328125 -0.5 -1.328125 -0.40625 C -1.328125 -0.28125 -1.265625 -0.28125 -1.109375 -0.28125 L -0.125 -0.28125 C 0 -0.28125 0.078125 -0.28125 0.078125 -0.375 C 0.078125 -0.4375 0.078125 -0.4375 -0.078125 -0.578125 C -0.125 -0.625 -0.21875 -0.703125 -0.265625 -0.75 C 0.0625 -1.109375 0.078125 -1.484375 0.078125 -1.6875 C 0.078125 -2.703125 -0.5 -3.046875 -1.03125 -3.046875 C -1.40625 -3.046875 -1.96875 -2.828125 -2.140625 -1.875 C -2.15625 -1.8125 -2.234375 -1.359375 -2.234375 -1.328125 C -2.296875 -1.078125 -2.46875 -0.703125 -2.78125 -0.703125 C -3.015625 -0.703125 -3.359375 -0.890625 -3.359375 -1.640625 C -3.359375 -2.53125 -2.703125 -2.578125 -2.484375 -2.59375 C -2.421875 -2.59375 -2.390625 -2.65625 -2.390625 -2.703125 C -2.390625 -2.84375 -2.453125 -2.84375 -2.59375 -2.84375 Z M -3.34375 -2.84375 "/>
</g>
<g id="glyph-10-9">
<path d="M 1.28125 -2.09375 C 1.28125 -1.578125 1.28125 -1.484375 0.921875 -1.484375 L -0.390625 -1.484375 C 0.015625 -1.859375 0.078125 -2.265625 0.078125 -2.53125 C 0.078125 -3.53125 -0.703125 -4.421875 -1.71875 -4.421875 C -2.71875 -4.421875 -3.515625 -3.609375 -3.515625 -2.640625 C -3.515625 -2.328125 -3.4375 -1.875 -3.015625 -1.46875 L -3.515625 -1.46875 L -3.421875 -0.28125 L -3.15625 -0.28125 C -3.15625 -0.84375 -3.109375 -0.890625 -2.78125 -0.890625 L 0.921875 -0.890625 C 1.28125 -0.890625 1.28125 -0.78125 1.28125 -0.28125 L 1.546875 -0.28125 C 1.515625 -0.625 1.515625 -0.96875 1.515625 -1.1875 C 1.515625 -1.421875 1.515625 -1.75 1.546875 -2.09375 Z M -2.65625 -1.484375 C -2.96875 -1.671875 -3.265625 -2.078125 -3.265625 -2.578125 C -3.265625 -3.1875 -2.59375 -3.703125 -1.71875 -3.703125 C -0.8125 -3.703125 -0.140625 -3.125 -0.140625 -2.484375 C -0.140625 -2.203125 -0.265625 -1.84375 -0.65625 -1.578125 C -0.796875 -1.484375 -0.8125 -1.484375 -0.953125 -1.484375 Z M -2.65625 -1.484375 "/>
</g>
<g id="glyph-10-10">
<path d="M -5.53125 -1.46875 L -5.4375 -0.28125 L -5.171875 -0.28125 C -5.171875 -0.828125 -5.125 -0.890625 -4.734375 -0.890625 L 0 -0.890625 L 0 -1.125 L -0.5 -1.421875 C -0.21875 -1.609375 0.078125 -1.984375 0.078125 -2.53125 C 0.078125 -3.53125 -0.703125 -4.421875 -1.71875 -4.421875 C -2.71875 -4.421875 -3.515625 -3.59375 -3.515625 -2.625 C -3.515625 -1.984375 -3.171875 -1.609375 -3.03125 -1.46875 Z M -2.515625 -1.484375 C -2.671875 -1.484375 -2.6875 -1.484375 -2.828125 -1.609375 C -3.125 -1.84375 -3.296875 -2.21875 -3.296875 -2.578125 C -3.296875 -2.984375 -3.046875 -3.296875 -2.8125 -3.453125 C -2.59375 -3.59375 -2.3125 -3.703125 -1.734375 -3.703125 C -1.546875 -3.703125 -0.984375 -3.703125 -0.609375 -3.421875 C -0.25 -3.125 -0.140625 -2.75 -0.140625 -2.5 C -0.140625 -2.109375 -0.34375 -1.796875 -0.65625 -1.578125 C -0.8125 -1.484375 -0.8125 -1.484375 -0.96875 -1.484375 Z M -2.515625 -1.484375 "/>
</g>
<g id="glyph-10-11">
<path d="M -3.421875 -2.65625 L -3.15625 -2.65625 C -3.15625 -3.203125 -3.109375 -3.265625 -2.71875 -3.265625 L -1.328125 -3.265625 C -0.640625 -3.265625 -0.140625 -2.859375 -0.140625 -2.25 C -0.140625 -1.5625 -0.484375 -1.53125 -0.890625 -1.53125 L -3.515625 -1.53125 L -3.421875 -0.328125 L -3.15625 -0.328125 C -3.15625 -0.9375 -3.140625 -0.9375 -2.4375 -0.9375 L -1.234375 -0.9375 C -0.65625 -0.9375 0.078125 -0.9375 0.078125 -2.203125 C 0.078125 -2.953125 -0.5 -3.25 -0.5625 -3.28125 L -0.5625 -3.296875 L 0.078125 -3.296875 L 0 -4.484375 L -0.265625 -4.484375 C -0.265625 -3.9375 -0.3125 -3.875 -0.703125 -3.875 L -3.515625 -3.875 Z M -3.421875 -2.65625 "/>
</g>
<g id="glyph-10-12">
<path d="M -0.125 -1.484375 C 0.125 -1.484375 0.765625 -1.484375 1.34375 -0.890625 C 1.359375 -0.859375 1.375 -0.84375 1.421875 -0.84375 C 1.5 -0.84375 1.546875 -0.90625 1.546875 -0.953125 C 1.546875 -1.046875 0.921875 -1.71875 -0.03125 -1.71875 C -0.46875 -1.71875 -0.890625 -1.546875 -0.890625 -1.171875 C -0.890625 -0.90625 -0.671875 -0.734375 -0.453125 -0.734375 C -0.203125 -0.734375 0 -0.90625 0 -1.171875 C 0 -1.359375 -0.09375 -1.46875 -0.125 -1.484375 Z M -0.125 -1.484375 "/>
</g>
<g id="glyph-10-13">
<path d="M 1.984375 -2.15625 L 1.625 -2.15625 L 1.625 -1.359375 L -5.609375 -1.359375 L -5.609375 -2.15625 L -5.96875 -2.15625 L -5.96875 -0.984375 L 1.984375 -0.984375 Z M 1.984375 -2.15625 "/>
</g>
<g id="glyph-10-14">
<path d="M -5.96875 -1.359375 L -5.96875 -0.1875 L -5.609375 -0.1875 L -5.609375 -0.984375 L 1.625 -0.984375 L 1.625 -0.1875 L 1.984375 -0.1875 L 1.984375 -1.359375 Z M -5.96875 -1.359375 "/>
</g>
<g id="glyph-11-0">
<path d="M -3.171875 -1.765625 L -3.171875 -2.546875 C -3.171875 -2.6875 -3.171875 -2.78125 -3.328125 -2.78125 C -3.4375 -2.78125 -3.4375 -2.6875 -3.4375 -2.546875 L -3.4375 -1.828125 L -4.5625 -2.109375 C -4.6875 -2.140625 -4.71875 -2.140625 -4.734375 -2.140625 C -4.90625 -2.140625 -4.984375 -2.015625 -4.984375 -1.875 C -4.984375 -1.609375 -4.765625 -1.546875 -4.40625 -1.46875 L -3.4375 -1.21875 L -3.4375 -0.453125 C -3.4375 -0.296875 -3.4375 -0.203125 -3.28125 -0.203125 C -3.171875 -0.203125 -3.171875 -0.296875 -3.171875 -0.4375 L -3.171875 -1.15625 L -1.265625 -0.671875 C -1.0625 -0.625 -0.78125 -0.5625 -0.671875 -0.5625 C -0.1875 -0.5625 0.078125 -0.953125 0.078125 -1.375 C 0.078125 -2.21875 -1.046875 -2.703125 -1.140625 -2.703125 C -1.234375 -2.703125 -1.25 -2.640625 -1.25 -2.59375 C -1.25 -2.5 -1.21875 -2.5 -1.09375 -2.4375 C -0.703125 -2.28125 -0.140625 -1.875 -0.140625 -1.390625 C -0.140625 -1.234375 -0.25 -1.125 -0.515625 -1.125 C -0.671875 -1.125 -0.75 -1.15625 -0.859375 -1.171875 Z M -3.171875 -1.765625 "/>
</g>
<g id="glyph-11-1">
<path d="M -1.28125 -3.265625 C -2.265625 -3.171875 -2.90625 -2.765625 -2.921875 -2.765625 C -3.1875 -2.59375 -3.515625 -2.296875 -3.515625 -1.765625 C -3.515625 -0.734375 -2.359375 -0.140625 -2.078125 -0.140625 C -2.015625 -0.140625 -1.984375 -0.203125 -1.984375 -0.265625 C -1.984375 -0.34375 -2.015625 -0.359375 -2.078125 -0.390625 C -2.78125 -0.625 -2.890625 -1.421875 -2.890625 -1.65625 C -2.890625 -2.9375 -1.5 -3.03125 -0.84375 -3.03125 C -0.390625 -3.03125 -0.328125 -3.015625 -0.140625 -2.953125 C 0.421875 -2.78125 1.3125 -2.546875 1.53125 -2.546875 C 1.546875 -2.546875 1.71875 -2.546875 1.71875 -2.671875 C 1.71875 -2.765625 1.59375 -2.84375 1.390625 -2.90625 C 0.65625 -3.125 0.125 -3.203125 -0.234375 -3.25 C -0.390625 -3.28125 -1.734375 -3.71875 -3.125 -4.46875 C -3.296875 -4.5625 -3.3125 -4.5625 -3.34375 -4.5625 C -3.34375 -4.5625 -3.4375 -4.5625 -3.4375 -4.4375 C -3.4375 -4.40625 -3.421875 -4.375 -3.40625 -4.34375 C -3.375 -4.3125 -2.203125 -3.6875 -1.109375 -3.296875 Z M -1.28125 -3.265625 "/>
</g>
<g id="glyph-12-0">
<path d="M -3.796875 -2.140625 C -3.96875 -2.140625 -3.96875 -2.125 -3.96875 -1.9375 C -3.59375 -1.546875 -3.59375 -0.9375 -3.59375 -0.71875 L -3.359375 -0.71875 C -3.359375 -0.875 -3.359375 -1.265625 -3.515625 -1.625 L -0.5 -1.625 C -0.3125 -1.625 -0.234375 -1.625 -0.234375 -1.015625 L -0.234375 -0.765625 L 0 -0.765625 C -0.03125 -1.09375 -0.03125 -1.546875 -0.03125 -1.890625 C -0.03125 -2.21875 -0.03125 -2.6875 0 -3.015625 L -0.234375 -3.015625 L -0.234375 -2.75 C -0.234375 -2.140625 -0.3125 -2.140625 -0.5 -2.140625 Z M -3.796875 -2.140625 "/>
</g>
<g id="glyph-13-0">
<path d="M -2.328125 -1.609375 L -2.328125 -2.25 C -2.328125 -2.375 -2.328125 -2.453125 -2.484375 -2.453125 C -2.578125 -2.453125 -2.578125 -2.375 -2.578125 -2.28125 L -2.578125 -1.671875 L -3.390625 -1.875 C -3.484375 -1.890625 -3.515625 -1.890625 -3.53125 -1.890625 C -3.671875 -1.890625 -3.734375 -1.78125 -3.734375 -1.6875 C -3.734375 -1.625 -3.6875 -1.46875 -3.5 -1.40625 L -2.578125 -1.171875 L -2.578125 -0.53125 C -2.578125 -0.40625 -2.5625 -0.40625 -2.546875 -0.375 C -2.53125 -0.34375 -2.453125 -0.328125 -2.421875 -0.328125 C -2.328125 -0.34375 -2.328125 -0.390625 -2.328125 -0.515625 L -2.328125 -1.109375 L -0.921875 -0.765625 C -0.78125 -0.734375 -0.578125 -0.6875 -0.515625 -0.6875 C -0.171875 -0.6875 0.0625 -0.984375 0.0625 -1.359375 C 0.0625 -2.046875 -0.765625 -2.453125 -0.859375 -2.453125 C -0.875 -2.453125 -0.9375 -2.4375 -0.9375 -2.328125 C -0.9375 -2.25 -0.90625 -2.25 -0.84375 -2.21875 C -0.390625 -2.015625 -0.140625 -1.671875 -0.140625 -1.375 C -0.140625 -1.15625 -0.359375 -1.15625 -0.4375 -1.15625 C -0.515625 -1.15625 -0.53125 -1.15625 -0.640625 -1.1875 Z M -2.328125 -1.609375 "/>
</g>
<g id="glyph-14-0">
<path d="M -3.171875 -1.984375 C -3.3125 -1.984375 -3.3125 -1.96875 -3.3125 -1.796875 C -3 -1.453125 -3 -0.890625 -3 -0.796875 L -3 -0.71875 L -2.78125 -0.71875 L -2.78125 -0.796875 C -2.78125 -0.90625 -2.796875 -1.234375 -2.921875 -1.53125 L -0.421875 -1.53125 C -0.28125 -1.53125 -0.21875 -1.53125 -0.21875 -1 L -0.21875 -0.75 L 0 -0.75 C -0.015625 -1.015625 -0.015625 -1.46875 -0.015625 -1.75 C -0.015625 -2.046875 -0.015625 -2.484375 0 -2.765625 L -0.21875 -2.765625 L -0.21875 -2.515625 C -0.21875 -1.984375 -0.28125 -1.984375 -0.421875 -1.984375 Z M -3.171875 -1.984375 "/>
</g>
<g id="glyph-15-0">
<path d="M -1.5 -3.25 C -2.25 -3.25 -2.84375 -2.640625 -2.84375 -1.90625 C -2.84375 -1.15625 -2.25 -0.5625 -1.5 -0.5625 C -0.734375 -0.5625 -0.140625 -1.15625 -0.140625 -1.90625 C -0.140625 -2.640625 -0.734375 -3.25 -1.5 -3.25 Z M -0.453125 -1.90625 C -0.453125 -1.328125 -0.90625 -0.859375 -1.5 -0.859375 C -2.078125 -0.859375 -2.53125 -1.328125 -2.53125 -1.90625 C -2.53125 -2.484375 -2.078125 -2.9375 -1.5 -2.9375 C -0.90625 -2.9375 -0.453125 -2.484375 -0.453125 -1.90625 Z M -0.453125 -1.90625 "/>
</g>
</g>
</defs>
<path fill="none" stroke-width="0.19925" stroke-linecap="butt" stroke-linejoin="miter" stroke="rgb(87.5%, 87.5%, 87.5%)" stroke-opacity="1" stroke-miterlimit="10" d="M 0.00135737 0.000876194 L 0.00135737 153.59418 M 126.595472 0.000876194 L 126.595472 153.59418 M 253.193494 0.000876194 L 253.193494 153.59418 " transform="matrix(0.999596, 0, 0, -0.999596, 66.139268, 161.891501)"/>
<path fill="none" stroke-width="0.19925" stroke-linecap="butt" stroke-linejoin="miter" stroke="rgb(87.5%, 87.5%, 87.5%)" stroke-opacity="1" stroke-miterlimit="10" d="M -25.321373 6.679356 L 278.512316 6.679356 M -25.321373 26.710886 L 278.512316 26.710886 M -25.321373 46.746324 L 278.512316 46.746324 M -25.321373 66.777855 L 278.512316 66.777855 M -25.321373 86.813293 L 278.512316 86.813293 M -25.321373 106.848731 L 278.512316 106.848731 M -25.321373 126.880262 L 278.512316 126.880262 M -25.321373 146.9157 L 278.512316 146.9157 " transform="matrix(0.999596, 0, 0, -0.999596, 66.139268, 161.891501)"/>
<path fill="none" stroke-width="0.19925" stroke-linecap="butt" stroke-linejoin="miter" stroke="rgb(50%, 50%, 50%)" stroke-opacity="1" stroke-miterlimit="10" d="M 0.00135737 -4.250842 L 0.00135737 0.000876194 M 126.595472 -4.250842 L 126.595472 0.000876194 M 253.193494 -4.250842 L 253.193494 0.000876194 M 0.00135737 157.845897 L 0.00135737 153.59418 M 126.595472 157.845897 L 126.595472 153.59418 M 253.193494 157.845897 L 253.193494 153.59418 " transform="matrix(0.999596, 0, 0, -0.999596, 66.139268, 161.891501)"/>
<path fill="none" stroke-width="0.19925" stroke-linecap="butt" stroke-linejoin="miter" stroke="rgb(50%, 50%, 50%)" stroke-opacity="1" stroke-miterlimit="10" d="M -25.321373 6.679356 L -21.069656 6.679356 M -25.321373 26.710886 L -21.069656 26.710886 M -25.321373 46.746324 L -21.069656 46.746324 M -25.321373 66.777855 L -21.069656 66.777855 M -25.321373 86.813293 L -21.069656 86.813293 M -25.321373 106.848731 L -21.069656 106.848731 M -25.321373 126.880262 L -21.069656 126.880262 M -25.321373 146.9157 L -21.069656 146.9157 M 278.512316 6.679356 L 274.260599 6.679356 M 278.512316 26.710886 L 274.260599 26.710886 M 278.512316 46.746324 L 274.260599 46.746324 M 278.512316 66.777855 L 274.260599 66.777855 M 278.512316 86.813293 L 274.260599 86.813293 M 278.512316 106.848731 L 274.260599 106.848731 M 278.512316 126.880262 L 274.260599 126.880262 M 278.512316 146.9157 L 274.260599 146.9157 " transform="matrix(0.999596, 0, 0, -0.999596, 66.139268, 161.891501)"/>
<path fill="none" stroke-width="0.3985" stroke-linecap="butt" stroke-linejoin="miter" stroke="rgb(0%, 0%, 0%)" stroke-opacity="1" stroke-miterlimit="10" d="M -25.321373 0.000876194 L -25.321373 153.59418 L 278.512316 153.59418 L 278.512316 0.000876194 Z M -25.321373 0.000876194 " transform="matrix(0.999596, 0, 0, -0.999596, 66.139268, 161.891501)"/>
<g fill="rgb(0%, 0%, 0%)" fill-opacity="1">
<use xlink:href="#glyph-0-0" x="61.548124" y="175.192125"/>
</g>
<g fill="rgb(0%, 0%, 0%)" fill-opacity="1">
<use xlink:href="#glyph-1-0" x="66.58009" y="176.298678"/>
</g>
<g fill="rgb(0%, 0%, 0%)" fill-opacity="1">
<use xlink:href="#glyph-2-0" x="56.457181" y="185.390003"/>
</g>
<g fill="rgb(0%, 0%, 0%)" fill-opacity="1">
<use xlink:href="#glyph-0-1" x="60.689471" y="185.390003"/>
</g>
<g fill="rgb(0%, 0%, 0%)" fill-opacity="1">
<use xlink:href="#glyph-2-1" x="63.040521" y="185.390003"/>
<use xlink:href="#glyph-2-2" x="67.273324" y="185.390003"/>
</g>
<g fill="rgb(0%, 0%, 0%)" fill-opacity="1">
<use xlink:href="#glyph-3-0" x="71.506099" y="182.57814"/>
</g>
<g fill="rgb(0%, 0%, 0%)" fill-opacity="1">
<use xlink:href="#glyph-0-2" x="180.577015" y="175.192125"/>
</g>
<g fill="rgb(0%, 0%, 0%)" fill-opacity="1">
<use xlink:href="#glyph-1-1" x="184.525419" y="176.597557"/>
<use xlink:href="#glyph-1-2" x="188.176855" y="176.597557"/>
</g>
<g fill="rgb(0%, 0%, 0%)" fill-opacity="1">
<use xlink:href="#glyph-1-3" x="191.249893" y="176.597557"/>
</g>
<g fill="rgb(0%, 0%, 0%)" fill-opacity="1">
<use xlink:href="#glyph-4-0" x="195.28607" y="176.597557"/>
<use xlink:href="#glyph-4-1" x="197.554251" y="176.597557"/>
</g>
<g fill="rgb(0%, 0%, 0%)" fill-opacity="1">
<use xlink:href="#glyph-5-0" x="200.404002" y="177.748092"/>
</g>
<g fill="rgb(0%, 0%, 0%)" fill-opacity="1">
<use xlink:href="#glyph-2-3" x="179.708366" y="186.407592"/>
<use xlink:href="#glyph-2-4" x="186.292196" y="186.407592"/>
</g>
<g fill="rgb(0%, 0%, 0%)" fill-opacity="1">
<use xlink:href="#glyph-0-1" x="190.524995" y="186.407592"/>
</g>
<g fill="rgb(0%, 0%, 0%)" fill-opacity="1">
<use xlink:href="#glyph-2-5" x="192.876044" y="186.407592"/>
<use xlink:href="#glyph-2-6" x="197.108848" y="186.407592"/>
</g>
<g fill="rgb(0%, 0%, 0%)" fill-opacity="1">
<use xlink:href="#glyph-3-0" x="201.341623" y="183.595729"/>
</g>
<g fill="rgb(0%, 0%, 0%)" fill-opacity="1">
<use xlink:href="#glyph-0-2" x="307.11987" y="175.192125"/>
</g>
<g fill="rgb(0%, 0%, 0%)" fill-opacity="1">
<use xlink:href="#glyph-1-1" x="311.068274" y="176.597557"/>
<use xlink:href="#glyph-1-2" x="314.71971" y="176.597557"/>
</g>
<g fill="rgb(0%, 0%, 0%)" fill-opacity="1">
<use xlink:href="#glyph-1-3" x="317.792747" y="176.597557"/>
</g>
<g fill="rgb(0%, 0%, 0%)" fill-opacity="1">
<use xlink:href="#glyph-4-0" x="321.828925" y="176.597557"/>
<use xlink:href="#glyph-4-1" x="324.097105" y="176.597557"/>
</g>
<g fill="rgb(0%, 0%, 0%)" fill-opacity="1">
<use xlink:href="#glyph-5-0" x="326.946856" y="177.748092"/>
</g>
<g fill="rgb(0%, 0%, 0%)" fill-opacity="1">
<use xlink:href="#glyph-6-0" x="306.251221" y="186.407592"/>
</g>
<g fill="rgb(0%, 0%, 0%)" fill-opacity="1">
<use xlink:href="#glyph-2-4" x="312.83556" y="186.407592"/>
</g>
<g fill="rgb(0%, 0%, 0%)" fill-opacity="1">
<use xlink:href="#glyph-0-1" x="317.067849" y="186.407592"/>
</g>
<g fill="rgb(0%, 0%, 0%)" fill-opacity="1">
<use xlink:href="#glyph-2-2" x="319.418899" y="186.407592"/>
<use xlink:href="#glyph-2-6" x="323.651702" y="186.407592"/>
</g>
<g fill="rgb(0%, 0%, 0%)" fill-opacity="1">
<use xlink:href="#glyph-3-0" x="327.884477" y="183.595729"/>
</g>
<g fill="rgb(0%, 0%, 0%)" fill-opacity="1">
<use xlink:href="#glyph-6-0" x="22.262002" y="157.368329"/>
</g>
<g fill="rgb(0%, 0%, 0%)" fill-opacity="1">
<use xlink:href="#glyph-2-6" x="28.845341" y="157.368329"/>
<use xlink:href="#glyph-2-7" x="33.078145" y="157.368329"/>
</g>
<g fill="rgb(0%, 0%, 0%)" fill-opacity="1">
<use xlink:href="#glyph-6-0" x="26.494292" y="137.342423"/>
</g>
<g fill="rgb(0%, 0%, 0%)" fill-opacity="1">
<use xlink:href="#glyph-2-4" x="33.07863" y="137.342423"/>
</g>
<g fill="rgb(0%, 0%, 0%)" fill-opacity="1">
<use xlink:href="#glyph-6-0" x="26.494292" y="117.317517"/>
</g>
<g fill="rgb(0%, 0%, 0%)" fill-opacity="1">
<use xlink:href="#glyph-2-8" x="33.07863" y="117.317517"/>
</g>
<g fill="rgb(0%, 0%, 0%)" fill-opacity="1">
<use xlink:href="#glyph-6-0" x="26.494292" y="97.29161"/>
</g>
<g fill="rgb(0%, 0%, 0%)" fill-opacity="1">
<use xlink:href="#glyph-2-5" x="33.07863" y="97.29161"/>
</g>
<g fill="rgb(0%, 0%, 0%)" fill-opacity="1">
<use xlink:href="#glyph-2-0" x="33.07863" y="77.681536"/>
</g>
<g fill="rgb(0%, 0%, 0%)" fill-opacity="1">
<use xlink:href="#glyph-2-5" x="33.07863" y="57.65563"/>
</g>
<g fill="rgb(0%, 0%, 0%)" fill-opacity="1">
<use xlink:href="#glyph-2-8" x="33.07863" y="37.630724"/>
</g>
<g fill="rgb(0%, 0%, 0%)" fill-opacity="1">
<use xlink:href="#glyph-2-4" x="33.07863" y="17.604818"/>
</g>
<path fill-rule="nonzero" fill="rgb(0%, 34.118652%, 72.155762%)" fill-opacity="1" stroke-width="0.3985" stroke-linecap="butt" stroke-linejoin="miter" stroke="rgb(0%, 0%, 0%)" stroke-opacity="1" stroke-miterlimit="10" d="M -6.974117 86.813293 L 6.972924 86.813293 L 6.972924 80.334113 L -6.974117 80.334113 Z M 119.623905 86.813293 L 133.570946 86.813293 L 133.570946 137.364967 L 119.623905 137.364967 Z M 246.218019 86.813293 L 260.16506 86.813293 L 260.16506 14.491105 L 246.218019 14.491105 Z M 246.218019 86.813293 " transform="matrix(0.999596, 0, 0, -0.999596, 66.139268, 161.891501)"/>
<g fill="rgb(0%, 0%, 0%)" fill-opacity="1">
<use xlink:href="#glyph-7-0" x="55.890411" y="89.599719"/>
</g>
<g fill="rgb(0%, 0%, 0%)" fill-opacity="1">
<use xlink:href="#glyph-8-0" x="62.113895" y="89.599719"/>
</g>
<g fill="rgb(0%, 0%, 0%)" fill-opacity="1">
<use xlink:href="#glyph-9-0" x="66.08429" y="89.599719"/>
</g>
<g fill="rgb(0%, 0%, 0%)" fill-opacity="1">
<use xlink:href="#glyph-8-1" x="68.449335" y="89.599719"/>
<use xlink:href="#glyph-8-2" x="72.419309" y="89.599719"/>
</g>
<g fill="rgb(0%, 0%, 0%)" fill-opacity="1">
<use xlink:href="#glyph-8-2" x="185.545007" y="21.065419"/>
</g>
<g fill="rgb(0%, 0%, 0%)" fill-opacity="1">
<use xlink:href="#glyph-9-0" x="189.515403" y="21.065419"/>
</g>
<g fill="rgb(0%, 0%, 0%)" fill-opacity="1">
<use xlink:href="#glyph-8-3" x="191.880447" y="21.065419"/>
<use xlink:href="#glyph-8-2" x="195.850421" y="21.065419"/>
</g>
<g fill="rgb(0%, 0%, 0%)" fill-opacity="1">
<use xlink:href="#glyph-7-0" x="306.991922" y="155.417118"/>
</g>
<g fill="rgb(0%, 0%, 0%)" fill-opacity="1">
<use xlink:href="#glyph-8-4" x="313.216406" y="155.417118"/>
<use xlink:href="#glyph-8-0" x="317.18638" y="155.417118"/>
</g>
<g fill="rgb(0%, 0%, 0%)" fill-opacity="1">
<use xlink:href="#glyph-9-0" x="321.155197" y="155.417118"/>
</g>
<g fill="rgb(0%, 0%, 0%)" fill-opacity="1">
<use xlink:href="#glyph-8-5" x="323.520241" y="155.417118"/>
<use xlink:href="#glyph-8-6" x="327.490216" y="155.417118"/>
</g>
<g fill="rgb(0%, 0%, 0%)" fill-opacity="1">
<use xlink:href="#glyph-2-9" x="111.517927" y="200.050078"/>
<use xlink:href="#glyph-2-10" x="117.85797" y="200.050078"/>
</g>
<g fill="rgb(0%, 0%, 0%)" fill-opacity="1">
<use xlink:href="#glyph-2-11" x="121.388892" y="200.050078"/>
</g>
<g fill="rgb(0%, 0%, 0%)" fill-opacity="1">
<use xlink:href="#glyph-2-12" x="126.083774" y="200.050078"/>
</g>
<g fill="rgb(0%, 0%, 0%)" fill-opacity="1">
<use xlink:href="#glyph-2-13" x="128.442767" y="200.050078"/>
<use xlink:href="#glyph-2-14" x="132.204728" y="200.050078"/>
</g>
<g fill="rgb(0%, 0%, 0%)" fill-opacity="1">
<use xlink:href="#glyph-2-13" x="136.433548" y="200.050078"/>
<use xlink:href="#glyph-2-15" x="140.195508" y="200.050078"/>
</g>
<g fill="rgb(0%, 0%, 0%)" fill-opacity="1">
<use xlink:href="#glyph-2-13" x="147.718633" y="200.050078"/>
<use xlink:href="#glyph-2-16" x="151.480594" y="200.050078"/>
</g>
<g fill="rgb(0%, 0%, 0%)" fill-opacity="1">
<use xlink:href="#glyph-2-17" x="155.952404" y="200.050078"/>
<use xlink:href="#glyph-2-18" x="159.244319" y="200.050078"/>
<use xlink:href="#glyph-2-19" x="162.543404" y="200.050078"/>
</g>
<g fill="rgb(0%, 0%, 0%)" fill-opacity="1">
<use xlink:href="#glyph-2-10" x="169.831505" y="200.050078"/>
<use xlink:href="#glyph-2-20" x="173.593466" y="200.050078"/>
<use xlink:href="#glyph-2-16" x="177.826269" y="200.050078"/>
<use xlink:href="#glyph-2-15" x="182.529119" y="200.050078"/>
<use xlink:href="#glyph-2-12" x="187.231968" y="200.050078"/>
<use xlink:href="#glyph-2-17" x="189.582994" y="200.050078"/>
<use xlink:href="#glyph-2-12" x="192.874909" y="200.050078"/>
<use xlink:href="#glyph-2-20" x="195.225935" y="200.050078"/>
<use xlink:href="#glyph-2-16" x="199.458739" y="200.050078"/>
<use xlink:href="#glyph-2-21" x="204.161588" y="200.050078"/>
</g>
<g fill="rgb(0%, 0%, 0%)" fill-opacity="1">
<use xlink:href="#glyph-0-0" x="209.333393" y="200.050078"/>
</g>
<g fill="rgb(0%, 0%, 0%)" fill-opacity="1">
<use xlink:href="#glyph-1-0" x="214.365359" y="201.156631"/>
</g>
<g fill="rgb(0%, 0%, 0%)" fill-opacity="1">
<use xlink:href="#glyph-2-22" x="221.336541" y="200.050078"/>
<use xlink:href="#glyph-2-16" x="225.569345" y="200.050078"/>
<use xlink:href="#glyph-2-15" x="230.272194" y="200.050078"/>
</g>
<g fill="rgb(0%, 0%, 0%)" fill-opacity="1">
<use xlink:href="#glyph-0-2" x="237.795889" y="200.050078"/>
</g>
<g fill="rgb(0%, 0%, 0%)" fill-opacity="1">
<use xlink:href="#glyph-1-1" x="241.745293" y="201.45551"/>
<use xlink:href="#glyph-1-2" x="245.396728" y="201.45551"/>
</g>
<g fill="rgb(0%, 0%, 0%)" fill-opacity="1">
<use xlink:href="#glyph-1-3" x="248.469766" y="201.45551"/>
</g>
<g fill="rgb(0%, 0%, 0%)" fill-opacity="1">
<use xlink:href="#glyph-4-0" x="252.505943" y="201.45551"/>
<use xlink:href="#glyph-4-1" x="254.774124" y="201.45551"/>
</g>
<g fill="rgb(0%, 0%, 0%)" fill-opacity="1">
<use xlink:href="#glyph-5-0" x="257.622875" y="202.606045"/>
</g>
<g fill="rgb(0%, 0%, 0%)" fill-opacity="1">
<use xlink:href="#glyph-2-23" x="264.828963" y="200.050078"/>
</g>
<g fill="rgb(0%, 0%, 0%)" fill-opacity="1">
<use xlink:href="#glyph-3-0" x="267.181012" y="197.238215"/>
</g>
<g fill="rgb(0%, 0%, 0%)" fill-opacity="1">
<use xlink:href="#glyph-2-24" x="271.496268" y="200.050078"/>
</g>
<g fill="rgb(0%, 0%, 0%)" fill-opacity="1">
<use xlink:href="#glyph-10-0" x="13.277634" y="148.347975"/>
<use xlink:href="#glyph-10-1" x="13.277634" y="142.234191"/>
<use xlink:href="#glyph-10-2" x="13.277634" y="138.001388"/>
</g>
<g fill="rgb(0%, 0%, 0%)" fill-opacity="1">
<use xlink:href="#glyph-10-3" x="13.277634" y="133.537545"/>
<use xlink:href="#glyph-10-4" x="13.277634" y="130.24563"/>
<use xlink:href="#glyph-10-5" x="13.277634" y="126.012827"/>
<use xlink:href="#glyph-10-3" x="13.277634" y="122.250866"/>
</g>
<g fill="rgb(0%, 0%, 0%)" fill-opacity="1">
<use xlink:href="#glyph-10-6" x="13.277634" y="116.130709"/>
<use xlink:href="#glyph-10-7" x="13.277634" y="112.831624"/>
<use xlink:href="#glyph-10-8" x="13.277634" y="109.069663"/>
<use xlink:href="#glyph-10-9" x="13.277634" y="105.730744"/>
</g>
<g fill="rgb(0%, 0%, 0%)" fill-opacity="1">
<use xlink:href="#glyph-10-1" x="13.277634" y="100.796855"/>
<use xlink:href="#glyph-10-2" x="13.277634" y="96.564052"/>
<use xlink:href="#glyph-10-8" x="13.277634" y="91.861202"/>
<use xlink:href="#glyph-10-7" x="13.277634" y="88.522283"/>
</g>
<g fill="rgb(0%, 0%, 0%)" fill-opacity="1">
<use xlink:href="#glyph-10-4" x="13.277634" y="81.940047"/>
<use xlink:href="#glyph-10-10" x="13.277634" y="77.707243"/>
</g>
<g fill="rgb(0%, 0%, 0%)" fill-opacity="1">
<use xlink:href="#glyph-10-1" x="13.277634" y="72.765388"/>
<use xlink:href="#glyph-10-11" x="13.277634" y="68.532584"/>
<use xlink:href="#glyph-10-3" x="13.277634" y="63.829735"/>
</g>
<g fill="rgb(0%, 0%, 0%)" fill-opacity="1">
<use xlink:href="#glyph-11-0" x="13.277634" y="57.718605"/>
</g>
<g fill="rgb(0%, 0%, 0%)" fill-opacity="1">
<use xlink:href="#glyph-12-0" x="14.384186" y="54.66184"/>
</g>
<g fill="rgb(0%, 0%, 0%)" fill-opacity="1">
<use xlink:href="#glyph-10-12" x="13.277634" y="50.512517"/>
</g>
<g fill="rgb(0%, 0%, 0%)" fill-opacity="1">
<use xlink:href="#glyph-11-1" x="13.277634" y="45.339608"/>
</g>
<g fill="rgb(0%, 0%, 0%)" fill-opacity="1">
<use xlink:href="#glyph-13-0" x="14.273231" y="40.98037"/>
</g>
<g fill="rgb(0%, 0%, 0%)" fill-opacity="1">
<use xlink:href="#glyph-14-0" x="15.423766" y="38.130522"/>
</g>
<g fill="rgb(0%, 0%, 0%)" fill-opacity="1">
<use xlink:href="#glyph-10-13" x="13.277634" y="30.924434"/>
</g>
<g fill="rgb(0%, 0%, 0%)" fill-opacity="1">
<use xlink:href="#glyph-15-0" x="10.46577" y="28.573385"/>
</g>
<g fill="rgb(0%, 0%, 0%)" fill-opacity="1">
<use xlink:href="#glyph-10-14" x="13.277634" y="24.258129"/>
</g>
</svg>
