<?xml version="1.0" encoding="UTF-8"?>
<svg xmlns="http://www.w3.org/2000/svg" xmlns:xlink="http://www.w3.org/1999/xlink" width="192.077" height="160.157" viewBox="0 0 192.077 160.157">
<defs>
<g>
<g id="glyph-0-0">
<path d="M 5.640625 -4.84375 C 5.25 -4.78125 5.109375 -4.5 5.109375 -4.265625 C 5.109375 -3.984375 5.34375 -3.890625 5.5 -3.890625 C 5.859375 -3.890625 6.109375 -4.203125 6.109375 -4.515625 C 6.109375 -5.015625 5.546875 -5.25 5.046875 -5.25 C 4.3125 -5.25 3.90625 -4.53125 3.8125 -4.296875 C 3.53125 -5.203125 2.796875 -5.25 2.578125 -5.25 C 1.375 -5.25 0.71875 -3.6875 0.71875 -3.421875 C 0.71875 -3.375 0.765625 -3.3125 0.859375 -3.3125 C 0.953125 -3.3125 0.96875 -3.390625 1 -3.4375 C 1.40625 -4.75 2.203125 -5 2.546875 -5 C 3.078125 -5 3.1875 -4.5 3.1875 -4.21875 C 3.1875 -3.953125 3.109375 -3.6875 2.96875 -3.109375 L 2.5625 -1.484375 C 2.390625 -0.765625 2.046875 -0.125 1.421875 -0.125 C 1.359375 -0.125 1.0625 -0.125 0.8125 -0.28125 C 1.234375 -0.359375 1.328125 -0.71875 1.328125 -0.859375 C 1.328125 -1.09375 1.15625 -1.234375 0.921875 -1.234375 C 0.640625 -1.234375 0.328125 -0.984375 0.328125 -0.609375 C 0.328125 -0.109375 0.890625 0.125 1.40625 0.125 C 1.96875 0.125 2.375 -0.328125 2.625 -0.828125 C 2.8125 -0.125 3.40625 0.125 3.859375 0.125 C 5.0625 0.125 5.703125 -1.4375 5.703125 -1.703125 C 5.703125 -1.765625 5.65625 -1.8125 5.59375 -1.8125 C 5.484375 -1.8125 5.46875 -1.75 5.4375 -1.65625 C 5.109375 -0.609375 4.421875 -0.125 3.890625 -0.125 C 3.46875 -0.125 3.25 -0.421875 3.25 -0.921875 C 3.25 -1.171875 3.296875 -1.375 3.484375 -2.15625 L 3.90625 -3.765625 C 4.078125 -4.484375 4.484375 -5 5.03125 -5 C 5.046875 -5 5.390625 -5 5.640625 -4.84375 Z M 5.640625 -4.84375 "/>
</g>
<g id="glyph-0-1">
<path d="M 3.125 1.328125 C 2.8125 1.78125 2.34375 2.1875 1.765625 2.1875 C 1.609375 2.1875 1.046875 2.171875 0.875 1.609375 C 0.90625 1.625 0.96875 1.625 0.984375 1.625 C 1.34375 1.625 1.578125 1.3125 1.578125 1.046875 C 1.578125 0.765625 1.359375 0.671875 1.171875 0.671875 C 0.984375 0.671875 0.578125 0.828125 0.578125 1.40625 C 0.578125 2.015625 1.078125 2.421875 1.765625 2.421875 C 2.953125 2.421875 4.15625 1.328125 4.484375 0.015625 L 5.640625 -4.625 C 5.65625 -4.6875 5.6875 -4.75 5.6875 -4.828125 C 5.6875 -5 5.546875 -5.125 5.359375 -5.125 C 5.25 -5.125 5 -5.078125 4.90625 -4.71875 L 4.03125 -1.21875 C 3.96875 -1.015625 3.96875 -0.984375 3.875 -0.859375 C 3.640625 -0.515625 3.25 -0.125 2.671875 -0.125 C 2.015625 -0.125 1.953125 -0.765625 1.953125 -1.09375 C 1.953125 -1.765625 2.265625 -2.6875 2.59375 -3.546875 C 2.71875 -3.890625 2.796875 -4.0625 2.796875 -4.296875 C 2.796875 -4.796875 2.4375 -5.25 1.859375 -5.25 C 0.765625 -5.25 0.328125 -3.515625 0.328125 -3.421875 C 0.328125 -3.375 0.375 -3.3125 0.453125 -3.3125 C 0.5625 -3.3125 0.578125 -3.359375 0.625 -3.53125 C 0.90625 -4.53125 1.359375 -5 1.8125 -5 C 1.921875 -5 2.125 -5 2.125 -4.609375 C 2.125 -4.296875 2 -3.953125 1.8125 -3.5 C 1.234375 -1.953125 1.234375 -1.5625 1.234375 -1.265625 C 1.234375 -0.140625 2.046875 0.125 2.640625 0.125 C 2.984375 0.125 3.40625 0.015625 3.828125 -0.421875 L 3.84375 -0.421875 C 3.65625 0.28125 3.546875 0.75 3.125 1.328125 Z M 3.125 1.328125 "/>
</g>
<g id="glyph-0-2">
<path d="M 1.515625 -0.96875 C 2.015625 -1.546875 2.4375 -1.921875 3.03125 -2.453125 C 3.75 -3.0625 4.0625 -3.359375 4.21875 -3.546875 C 5.046875 -4.359375 5.46875 -5.046875 5.46875 -5.15625 C 5.46875 -5.25 5.375 -5.25 5.34375 -5.25 C 5.265625 -5.25 5.25 -5.203125 5.1875 -5.109375 C 4.890625 -4.609375 4.609375 -4.359375 4.296875 -4.359375 C 4.046875 -4.359375 3.90625 -4.453125 3.6875 -4.75 C 3.4375 -5.046875 3.234375 -5.25 2.890625 -5.25 C 2.015625 -5.25 1.5 -4.15625 1.5 -3.90625 C 1.5 -3.875 1.515625 -3.8125 1.609375 -3.8125 C 1.71875 -3.8125 1.71875 -3.859375 1.765625 -3.9375 C 1.96875 -4.40625 2.53125 -4.5 2.765625 -4.5 C 3.015625 -4.5 3.25 -4.40625 3.5 -4.296875 C 3.953125 -4.109375 4.140625 -4.109375 4.25 -4.109375 C 4.34375 -4.109375 4.390625 -4.109375 4.453125 -4.125 C 4.0625 -3.65625 3.40625 -3.09375 2.875 -2.609375 L 1.671875 -1.5 C 0.953125 -0.765625 0.515625 -0.0625 0.515625 0.03125 C 0.515625 0.09375 0.578125 0.125 0.640625 0.125 C 0.71875 0.125 0.71875 0.109375 0.8125 -0.03125 C 1 -0.328125 1.375 -0.765625 1.8125 -0.765625 C 2.0625 -0.765625 2.1875 -0.6875 2.421875 -0.390625 C 2.65625 -0.125 2.859375 0.125 3.234375 0.125 C 4.40625 0.125 5.0625 -1.390625 5.0625 -1.671875 C 5.0625 -1.71875 5.046875 -1.78125 4.9375 -1.78125 C 4.84375 -1.78125 4.828125 -1.734375 4.796875 -1.609375 C 4.53125 -0.921875 3.828125 -0.625 3.359375 -0.625 C 3.109375 -0.625 2.875 -0.71875 2.625 -0.828125 C 2.15625 -1.015625 2.015625 -1.015625 1.859375 -1.015625 C 1.75 -1.015625 1.609375 -1.015625 1.515625 -0.96875 Z M 1.515625 -0.96875 "/>
</g>
<g id="glyph-0-3">
<path d="M 0.515625 1.515625 C 0.421875 1.859375 0.375 1.96875 -0.109375 1.96875 C -0.25 1.96875 -0.375 1.96875 -0.375 2.1875 C -0.375 2.21875 -0.359375 2.3125 -0.21875 2.3125 C -0.078125 2.3125 0.09375 2.28125 0.25 2.28125 L 0.765625 2.28125 C 1.015625 2.28125 1.609375 2.3125 1.859375 2.3125 C 1.9375 2.3125 2.078125 2.3125 2.078125 2.09375 C 2.078125 1.96875 2 1.96875 1.796875 1.96875 C 1.25 1.96875 1.21875 1.875 1.21875 1.78125 C 1.21875 1.640625 1.75 -0.40625 1.8125 -0.671875 C 1.953125 -0.34375 2.265625 0.125 2.890625 0.125 C 4.234375 0.125 5.6875 -1.625 5.6875 -3.375 C 5.6875 -4.46875 5.0625 -5.25 4.171875 -5.25 C 3.40625 -5.25 2.765625 -4.5 2.640625 -4.34375 C 2.546875 -4.9375 2.078125 -5.25 1.609375 -5.25 C 1.265625 -5.25 0.984375 -5.078125 0.765625 -4.625 C 0.546875 -4.203125 0.375 -3.46875 0.375 -3.421875 C 0.375 -3.375 0.421875 -3.3125 0.515625 -3.3125 C 0.609375 -3.3125 0.625 -3.328125 0.6875 -3.609375 C 0.875 -4.296875 1.09375 -5 1.5625 -5 C 1.84375 -5 1.9375 -4.8125 1.9375 -4.453125 C 1.9375 -4.171875 1.90625 -4.0625 1.859375 -3.84375 Z M 2.5625 -3.703125 C 2.65625 -4.046875 2.984375 -4.390625 3.171875 -4.546875 C 3.3125 -4.671875 3.703125 -5 4.15625 -5 C 4.671875 -5 4.90625 -4.484375 4.90625 -3.859375 C 4.90625 -3.296875 4.578125 -1.953125 4.28125 -1.328125 C 3.984375 -0.6875 3.4375 -0.125 2.890625 -0.125 C 2.078125 -0.125 1.953125 -1.140625 1.953125 -1.1875 C 1.953125 -1.21875 1.96875 -1.3125 1.984375 -1.375 Z M 2.5625 -3.703125 "/>
</g>
<g id="glyph-1-0">
<path d="M 7.59375 -3.046875 L 7.328125 -3.046875 C 7.046875 -1.1875 6.75 -0.34375 4.75 -0.34375 L 3.125 -0.34375 C 2.609375 -0.34375 2.578125 -0.421875 2.578125 -0.828125 L 2.578125 -4.03125 L 3.65625 -4.03125 C 4.796875 -4.03125 4.9375 -3.65625 4.9375 -2.640625 L 5.203125 -2.640625 L 5.203125 -5.765625 L 4.9375 -5.765625 C 4.9375 -4.75 4.796875 -4.375 3.65625 -4.375 L 2.578125 -4.375 L 2.578125 -7.28125 C 2.578125 -7.671875 2.609375 -7.75 3.125 -7.75 L 4.703125 -7.75 C 6.453125 -7.75 6.828125 -7.15625 7 -5.453125 L 7.265625 -5.453125 L 6.953125 -8.09375 L 0.484375 -8.09375 L 0.484375 -7.75 L 0.71875 -7.75 C 1.578125 -7.75 1.609375 -7.640625 1.609375 -7.1875 L 1.609375 -0.90625 C 1.609375 -0.46875 1.578125 -0.34375 0.71875 -0.34375 L 0.484375 -0.34375 L 0.484375 0 L 7.109375 0 Z M 7.59375 -3.046875 "/>
</g>
<g id="glyph-2-0">
<path d="M 2.21875 -3.5 L 2.21875 -6.0625 C 2.21875 -6.296875 2.21875 -6.40625 2.4375 -6.4375 C 2.53125 -6.453125 2.828125 -6.453125 3.015625 -6.453125 C 3.90625 -6.453125 5.015625 -6.421875 5.015625 -4.984375 C 5.015625 -4.296875 4.78125 -3.5 3.3125 -3.5 Z M 4.3125 -3.375 C 5.265625 -3.609375 6.046875 -4.203125 6.046875 -4.984375 C 6.046875 -5.9375 4.90625 -6.765625 3.453125 -6.765625 L 0.34375 -6.765625 L 0.34375 -6.453125 L 0.578125 -6.453125 C 1.34375 -6.453125 1.359375 -6.34375 1.359375 -6 L 1.359375 -0.765625 C 1.359375 -0.421875 1.34375 -0.3125 0.578125 -0.3125 L 0.34375 -0.3125 L 0.34375 0 C 0.703125 -0.03125 1.40625 -0.03125 1.796875 -0.03125 C 2.171875 -0.03125 2.875 -0.03125 3.234375 0 L 3.234375 -0.3125 L 3 -0.3125 C 2.234375 -0.3125 2.21875 -0.421875 2.21875 -0.765625 L 2.21875 -3.28125 L 3.359375 -3.28125 C 3.515625 -3.28125 3.9375 -3.28125 4.28125 -2.9375 C 4.65625 -2.578125 4.65625 -2.28125 4.65625 -1.609375 C 4.65625 -0.96875 4.65625 -0.578125 5.0625 -0.203125 C 5.46875 0.15625 6.015625 0.21875 6.3125 0.21875 C 7.078125 0.21875 7.25 -0.59375 7.25 -0.875 C 7.25 -0.9375 7.25 -1.046875 7.125 -1.046875 C 7.015625 -1.046875 7.015625 -0.953125 7 -0.875 C 6.9375 -0.171875 6.59375 0 6.34375 0 C 5.859375 0 5.78125 -0.5 5.640625 -1.421875 L 5.515625 -2.21875 C 5.34375 -2.859375 4.859375 -3.1875 4.3125 -3.375 Z M 4.3125 -3.375 "/>
</g>
<g id="glyph-2-1">
<path d="M 1.109375 -2.5 C 1.171875 -3.96875 2 -4.21875 2.34375 -4.21875 C 3.359375 -4.21875 3.453125 -2.875 3.453125 -2.5 Z M 1.09375 -2.28125 L 3.859375 -2.28125 C 4.078125 -2.28125 4.109375 -2.28125 4.109375 -2.5 C 4.109375 -3.484375 3.578125 -4.4375 2.34375 -4.4375 C 1.1875 -4.4375 0.28125 -3.421875 0.28125 -2.171875 C 0.28125 -0.859375 1.3125 0.109375 2.453125 0.109375 C 3.671875 0.109375 4.109375 -0.984375 4.109375 -1.171875 C 4.109375 -1.28125 4.03125 -1.296875 3.984375 -1.296875 C 3.890625 -1.296875 3.875 -1.234375 3.859375 -1.15625 C 3.5 -0.140625 2.609375 -0.140625 2.515625 -0.140625 C 2.015625 -0.140625 1.625 -0.4375 1.390625 -0.796875 C 1.09375 -1.28125 1.09375 -1.9375 1.09375 -2.28125 Z M 1.09375 -2.28125 "/>
</g>
<g id="glyph-2-2">
<path d="M 1.734375 -4.265625 L 1.734375 -5.421875 C 1.734375 -6.296875 2.203125 -6.765625 2.640625 -6.765625 C 2.671875 -6.765625 2.828125 -6.765625 2.96875 -6.703125 C 2.859375 -6.65625 2.671875 -6.53125 2.671875 -6.28125 C 2.671875 -6.046875 2.828125 -5.859375 3.09375 -5.859375 C 3.390625 -5.859375 3.53125 -6.046875 3.53125 -6.296875 C 3.53125 -6.65625 3.171875 -6.984375 2.640625 -6.984375 C 1.953125 -6.984375 1.109375 -6.453125 1.109375 -5.40625 L 1.109375 -4.265625 L 0.328125 -4.265625 L 0.328125 -3.96875 L 1.109375 -3.96875 L 1.109375 -0.75 C 1.109375 -0.3125 1 -0.3125 0.34375 -0.3125 L 0.34375 0 C 0.71875 -0.015625 1.1875 -0.03125 1.46875 -0.03125 C 1.859375 -0.03125 2.328125 -0.03125 2.71875 0 L 2.71875 -0.3125 L 2.515625 -0.3125 C 1.78125 -0.3125 1.765625 -0.421875 1.765625 -0.765625 L 1.765625 -3.96875 L 2.890625 -3.96875 L 2.890625 -4.265625 Z M 1.734375 -4.265625 "/>
</g>
<g id="glyph-2-3">
<path d="M 1.65625 -3.28125 L 1.65625 -4.375 L 0.28125 -4.265625 L 0.28125 -3.96875 C 0.96875 -3.96875 1.046875 -3.890625 1.046875 -3.40625 L 1.046875 -0.75 C 1.046875 -0.3125 0.9375 -0.3125 0.28125 -0.3125 L 0.28125 0 C 0.65625 -0.015625 1.125 -0.03125 1.40625 -0.03125 C 1.796875 -0.03125 2.265625 -0.03125 2.671875 0 L 2.671875 -0.3125 L 2.453125 -0.3125 C 1.71875 -0.3125 1.703125 -0.421875 1.703125 -0.765625 L 1.703125 -2.296875 C 1.703125 -3.28125 2.125 -4.15625 2.875 -4.15625 C 2.9375 -4.15625 2.96875 -4.15625 2.984375 -4.15625 C 2.953125 -4.140625 2.75 -4.015625 2.75 -3.765625 C 2.75 -3.484375 2.96875 -3.34375 3.1875 -3.34375 C 3.359375 -3.34375 3.609375 -3.453125 3.609375 -3.78125 C 3.609375 -4.09375 3.296875 -4.375 2.875 -4.375 C 2.15625 -4.375 1.796875 -3.71875 1.65625 -3.28125 Z M 1.65625 -3.28125 "/>
</g>
<g id="glyph-2-4">
<path d="M 1.09375 -3.40625 L 1.09375 -0.75 C 1.09375 -0.3125 0.984375 -0.3125 0.3125 -0.3125 L 0.3125 0 C 0.65625 -0.015625 1.171875 -0.03125 1.4375 -0.03125 C 1.6875 -0.03125 2.203125 -0.015625 2.546875 0 L 2.546875 -0.3125 C 1.875 -0.3125 1.765625 -0.3125 1.765625 -0.75 L 1.765625 -2.578125 C 1.765625 -3.609375 2.484375 -4.15625 3.109375 -4.15625 C 3.734375 -4.15625 3.84375 -3.625 3.84375 -3.0625 L 3.84375 -0.75 C 3.84375 -0.3125 3.734375 -0.3125 3.078125 -0.3125 L 3.078125 0 C 3.421875 -0.015625 3.921875 -0.03125 4.1875 -0.03125 C 4.453125 -0.03125 4.96875 -0.015625 5.296875 0 L 5.296875 -0.3125 C 4.78125 -0.3125 4.53125 -0.3125 4.53125 -0.609375 L 4.53125 -2.5 C 4.53125 -3.34375 4.53125 -3.65625 4.21875 -4.015625 C 4.078125 -4.1875 3.75 -4.375 3.1875 -4.375 C 2.453125 -4.375 1.984375 -3.953125 1.71875 -3.34375 L 1.71875 -4.375 L 0.3125 -4.265625 L 0.3125 -3.96875 C 1.015625 -3.96875 1.09375 -3.890625 1.09375 -3.40625 Z M 1.09375 -3.40625 "/>
</g>
<g id="glyph-2-5">
<path d="M 1.15625 -2.15625 C 1.15625 -3.78125 1.96875 -4.1875 2.5 -4.1875 C 2.578125 -4.1875 3.203125 -4.1875 3.5625 -3.828125 C 3.15625 -3.796875 3.09375 -3.5 3.09375 -3.375 C 3.09375 -3.109375 3.265625 -2.90625 3.546875 -2.90625 C 3.796875 -2.90625 4 -3.078125 4 -3.375 C 4 -4.046875 3.25 -4.4375 2.484375 -4.4375 C 1.25 -4.4375 0.34375 -3.375 0.34375 -2.140625 C 0.34375 -0.875 1.3125 0.109375 2.46875 0.109375 C 3.796875 0.109375 4.109375 -1.078125 4.109375 -1.171875 C 4.109375 -1.28125 4.015625 -1.28125 3.984375 -1.28125 C 3.890625 -1.28125 3.875 -1.234375 3.859375 -1.171875 C 3.5625 -0.25 2.921875 -0.140625 2.5625 -0.140625 C 2.03125 -0.140625 1.15625 -0.5625 1.15625 -2.15625 Z M 1.15625 -2.15625 "/>
</g>
<g id="glyph-2-6">
<path d="M 1.703125 -3.734375 L 1.703125 -6.875 L 0.28125 -6.765625 L 0.28125 -6.453125 C 0.96875 -6.453125 1.046875 -6.390625 1.046875 -5.90625 L 1.046875 0 L 1.296875 0 C 1.3125 -0.015625 1.390625 -0.15625 1.65625 -0.609375 C 1.796875 -0.390625 2.21875 0.109375 2.953125 0.109375 C 4.125 0.109375 5.15625 -0.859375 5.15625 -2.140625 C 5.15625 -3.390625 4.1875 -4.375 3.0625 -4.375 C 2.28125 -4.375 1.859375 -3.90625 1.703125 -3.734375 Z M 1.734375 -1.125 L 1.734375 -3.171875 C 1.734375 -3.359375 1.734375 -3.375 1.84375 -3.53125 C 2.234375 -4.078125 2.78125 -4.15625 3.015625 -4.15625 C 3.453125 -4.15625 3.8125 -3.90625 4.046875 -3.53125 C 4.3125 -3.125 4.34375 -2.5625 4.34375 -2.15625 C 4.34375 -1.78125 4.3125 -1.1875 4.03125 -0.75 C 3.828125 -0.4375 3.453125 -0.109375 2.90625 -0.109375 C 2.46875 -0.109375 2.109375 -0.34375 1.875 -0.71875 C 1.734375 -0.921875 1.734375 -0.953125 1.734375 -1.125 Z M 1.734375 -1.125 "/>
</g>
<g id="glyph-2-7">
<path d="M 3.296875 -0.75 C 3.34375 -0.359375 3.609375 0.0625 4.078125 0.0625 C 4.28125 0.0625 4.890625 -0.078125 4.890625 -0.875 L 4.890625 -1.4375 L 4.640625 -1.4375 L 4.640625 -0.875 C 4.640625 -0.3125 4.390625 -0.25 4.28125 -0.25 C 3.953125 -0.25 3.90625 -0.6875 3.90625 -0.75 L 3.90625 -2.71875 C 3.90625 -3.140625 3.90625 -3.53125 3.5625 -3.890625 C 3.171875 -4.28125 2.671875 -4.4375 2.203125 -4.4375 C 1.390625 -4.4375 0.703125 -3.96875 0.703125 -3.3125 C 0.703125 -3.015625 0.90625 -2.859375 1.15625 -2.859375 C 1.4375 -2.859375 1.609375 -3.046875 1.609375 -3.3125 C 1.609375 -3.421875 1.5625 -3.75 1.109375 -3.765625 C 1.375 -4.109375 1.859375 -4.21875 2.171875 -4.21875 C 2.671875 -4.21875 3.234375 -3.828125 3.234375 -2.953125 L 3.234375 -2.578125 C 2.71875 -2.5625 2.03125 -2.53125 1.40625 -2.234375 C 0.65625 -1.890625 0.421875 -1.375 0.421875 -0.9375 C 0.421875 -0.140625 1.375 0.109375 2 0.109375 C 2.65625 0.109375 3.109375 -0.28125 3.296875 -0.75 Z M 3.234375 -2.375 L 3.234375 -1.390625 C 3.234375 -0.453125 2.515625 -0.109375 2.078125 -0.109375 C 1.578125 -0.109375 1.171875 -0.453125 1.171875 -0.953125 C 1.171875 -1.5 1.59375 -2.3125 3.234375 -2.375 Z M 3.234375 -2.375 "/>
</g>
<g id="glyph-2-8">
<path d="M 2.0625 -1.921875 C 2.28125 -1.875 3.09375 -1.71875 3.09375 -1.015625 C 3.09375 -0.5 2.75 -0.109375 1.96875 -0.109375 C 1.140625 -0.109375 0.78125 -0.671875 0.59375 -1.515625 C 0.5625 -1.640625 0.5625 -1.6875 0.453125 -1.6875 C 0.328125 -1.6875 0.328125 -1.609375 0.328125 -1.4375 L 0.328125 -0.125 C 0.328125 0.046875 0.328125 0.109375 0.4375 0.109375 C 0.484375 0.109375 0.5 0.09375 0.6875 -0.09375 C 0.703125 -0.109375 0.703125 -0.125 0.875 -0.3125 C 1.3125 0.09375 1.765625 0.109375 1.96875 0.109375 C 3.109375 0.109375 3.5625 -0.5625 3.5625 -1.265625 C 3.5625 -1.796875 3.265625 -2.09375 3.15625 -2.203125 C 2.828125 -2.53125 2.4375 -2.609375 2.015625 -2.6875 C 1.46875 -2.796875 0.796875 -2.921875 0.796875 -3.5 C 0.796875 -3.84375 1.0625 -4.25 1.90625 -4.25 C 3 -4.25 3.046875 -3.359375 3.078125 -3.046875 C 3.078125 -2.96875 3.171875 -2.96875 3.1875 -2.96875 C 3.3125 -2.96875 3.3125 -3.015625 3.3125 -3.203125 L 3.3125 -4.203125 C 3.3125 -4.375 3.3125 -4.4375 3.203125 -4.4375 C 3.15625 -4.4375 3.140625 -4.4375 3.015625 -4.3125 C 2.984375 -4.28125 2.875 -4.1875 2.84375 -4.15625 C 2.46875 -4.4375 2.0625 -4.4375 1.90625 -4.4375 C 0.703125 -4.4375 0.328125 -3.78125 0.328125 -3.21875 C 0.328125 -2.875 0.484375 -2.59375 0.75 -2.375 C 1.0625 -2.125 1.34375 -2.0625 2.0625 -1.921875 Z M 2.0625 -1.921875 "/>
</g>
<g id="glyph-2-9">
<path d="M 1.09375 -3.40625 L 1.09375 -0.75 C 1.09375 -0.3125 0.984375 -0.3125 0.3125 -0.3125 L 0.3125 0 C 0.65625 -0.015625 1.171875 -0.03125 1.4375 -0.03125 C 1.6875 -0.03125 2.203125 -0.015625 2.546875 0 L 2.546875 -0.3125 C 1.875 -0.3125 1.765625 -0.3125 1.765625 -0.75 L 1.765625 -2.578125 C 1.765625 -3.609375 2.484375 -4.15625 3.109375 -4.15625 C 3.734375 -4.15625 3.84375 -3.625 3.84375 -3.0625 L 3.84375 -0.75 C 3.84375 -0.3125 3.734375 -0.3125 3.078125 -0.3125 L 3.078125 0 C 3.421875 -0.015625 3.921875 -0.03125 4.1875 -0.03125 C 4.453125 -0.03125 4.96875 -0.015625 5.296875 0 L 5.296875 -0.3125 C 4.640625 -0.3125 4.53125 -0.3125 4.53125 -0.75 L 4.53125 -2.578125 C 4.53125 -3.609375 5.234375 -4.15625 5.859375 -4.15625 C 6.484375 -4.15625 6.59375 -3.625 6.59375 -3.0625 L 6.59375 -0.75 C 6.59375 -0.3125 6.484375 -0.3125 5.828125 -0.3125 L 5.828125 0 C 6.171875 -0.015625 6.671875 -0.03125 6.9375 -0.03125 C 7.203125 -0.03125 7.71875 -0.015625 8.046875 0 L 8.046875 -0.3125 C 7.53125 -0.3125 7.296875 -0.3125 7.28125 -0.609375 L 7.28125 -2.5 C 7.28125 -3.34375 7.28125 -3.65625 6.96875 -4.015625 C 6.828125 -4.1875 6.515625 -4.375 5.9375 -4.375 C 5.109375 -4.375 4.671875 -3.78125 4.5 -3.40625 C 4.359375 -4.265625 3.625 -4.375 3.1875 -4.375 C 2.453125 -4.375 1.984375 -3.953125 1.71875 -3.34375 L 1.71875 -4.375 L 0.3125 -4.265625 L 0.3125 -3.96875 C 1.015625 -3.96875 1.09375 -3.890625 1.09375 -3.40625 Z M 1.09375 -3.40625 "/>
</g>
</g>
</defs>
<path fill="none" stroke-width="0.99628" stroke-linecap="butt" stroke-linejoin="miter" stroke="rgb(71.372986%, 14.509583%, 17.64679%)" stroke-opacity="1" stroke-miterlimit="10" d="M 0.000805272 -0.000720687 L 106.798281 -0.000720687 " transform="matrix(0.994764, 0, 0, -0.994764, 60.639824, 100.780533)"/>
<path fill-rule="nonzero" fill="rgb(71.372986%, 14.509583%, 17.64679%)" fill-opacity="1" stroke-width="0.99628" stroke-linecap="butt" stroke-linejoin="miter" stroke="rgb(71.372986%, 14.509583%, 17.64679%)" stroke-opacity="1" stroke-miterlimit="10" d="M 4.535067 -0.000720687 C 3.97746 0.140645 1.531057 0.929933 -0.000399243 1.789905 L -0.000399243 -1.791346 C 1.531057 -0.931375 3.97746 -0.138159 4.535067 -0.000720687 Z M 4.535067 -0.000720687 " transform="matrix(0.994764, 0, 0, -0.994764, 166.879303, 100.780533)"/>
<g fill="rgb(71.372986%, 14.509583%, 17.64679%)" fill-opacity="1">
<use xlink:href="#glyph-0-0" x="177.230141" y="103.341056"/>
</g>
<path fill="none" stroke-width="0.99628" stroke-linecap="butt" stroke-linejoin="miter" stroke="rgb(12.940979%, 47.840881%, 23.527527%)" stroke-opacity="1" stroke-miterlimit="10" d="M 0.000805272 -0.000720687 L -38.419112 -29.337925 " transform="matrix(0.994764, 0, 0, -0.994764, 60.639824, 100.780533)"/>
<path fill-rule="nonzero" fill="rgb(12.940979%, 47.840881%, 23.527527%)" fill-opacity="1" stroke-width="0.99628" stroke-linecap="butt" stroke-linejoin="miter" stroke="rgb(12.940979%, 47.840881%, 23.527527%)" stroke-opacity="1" stroke-miterlimit="10" d="M 4.536971 -0.000053379 C 3.977392 0.140668 1.532117 0.930762 -0.000676773 1.789933 L -0.000215956 -1.787704 C 1.529369 -0.929897 3.975751 -0.139716 4.536971 -0.000053379 Z M 4.536971 -0.000053379 " transform="matrix(-0.790579, 0.603692, 0.603692, 0.790579, 22.422802, 129.964232)"/>
<g fill="rgb(12.940979%, 47.840881%, 23.527527%)" fill-opacity="1">
<use xlink:href="#glyph-0-1" x="7.311522" y="142.860044"/>
</g>
<path fill="none" stroke-width="0.99628" stroke-linecap="butt" stroke-linejoin="miter" stroke="rgb(12.940979%, 35.293579%, 67.059326%)" stroke-opacity="1" stroke-miterlimit="10" d="M 0.000805272 -0.000720687 L 0.000805272 78.453034 " transform="matrix(0.994764, 0, 0, -0.994764, 60.639824, 100.780533)"/>
<path fill-rule="nonzero" fill="rgb(12.940979%, 35.293579%, 67.059326%)" fill-opacity="1" stroke-width="0.99628" stroke-linecap="butt" stroke-linejoin="miter" stroke="rgb(12.940979%, 35.293579%, 67.059326%)" stroke-opacity="1" stroke-miterlimit="10" d="M 4.53663 -0.000805272 C 3.979023 0.14056 1.528693 0.929849 0.00116387 1.78982 L 0.00116387 -1.791431 C 1.528693 -0.931459 3.979023 -0.138244 4.53663 -0.000805272 Z M 4.53663 -0.000805272 " transform="matrix(0, -0.994764, -0.994764, 0, 60.639824, 22.739439)"/>
<g fill="rgb(12.940979%, 35.293579%, 67.059326%)" fill-opacity="1">
<use xlink:href="#glyph-0-2" x="57.669459" y="12.387796"/>
</g>
<path fill="none" stroke-width="0.64757" stroke-linecap="butt" stroke-linejoin="miter" stroke="rgb(0%, 0%, 0%)" stroke-opacity="1" stroke-dasharray="2.98883 2.98883" stroke-miterlimit="10" d="M 85.039822 -0.000720687 L 63.214607 -16.666106 L -21.828336 -16.666106 " transform="matrix(0.994764, 0, 0, -0.994764, 60.639824, 100.780533)"/>
<path fill="none" stroke-width="0.64757" stroke-linecap="butt" stroke-linejoin="miter" stroke="rgb(0%, 0%, 0%)" stroke-opacity="1" stroke-dasharray="2.98883 2.98883" stroke-miterlimit="10" d="M 63.214607 -16.666106 L 63.214607 41.442841 L 0.000805272 58.112154 " transform="matrix(0.994764, 0, 0, -0.994764, 60.639824, 100.780533)"/>
<path fill="none" stroke-width="2.1918" stroke-linecap="butt" stroke-linejoin="round" stroke="rgb(44.999695%, 44.999695%, 44.999695%)" stroke-opacity="1" stroke-miterlimit="10" d="M 0.000805272 -0.000720687 L 8.859691 31.32345 L 20.620489 60.350436 L 33.237333 77.471331 L 47.550558 84.390372 L 63.214607 78.720057 " transform="matrix(0.994764, 0, 0, -0.994764, 60.639824, 100.780533)"/>
<path fill="none" stroke-width="1.19553" stroke-linecap="butt" stroke-linejoin="miter" stroke="rgb(9.020996%, 21.174622%, 36.471558%)" stroke-opacity="1" stroke-miterlimit="10" d="M 0.000805272 -0.000720687 L 57.787754 37.885151 " transform="matrix(0.994764, 0, 0, -0.994764, 60.639824, 100.780533)"/>
<path fill-rule="nonzero" fill="rgb(9.020996%, 21.174622%, 36.471558%)" fill-opacity="1" stroke-width="1.19553" stroke-linecap="butt" stroke-linejoin="miter" stroke="rgb(9.020996%, 21.174622%, 36.471558%)" stroke-opacity="1" stroke-miterlimit="10" d="M 4.024908 -0.000403662 C 3.530531 0.12649 1.359734 0.840612 -0.00117842 1.61543 L 0.00193787 -1.617242 C 1.357422 -0.838927 3.52921 -0.12621 4.024908 -0.000403662 Z M 4.024908 -0.000403662 " transform="matrix(0.831881, -0.545379, -0.545379, -0.831881, 118.12419, 63.093204)"/>
<g fill="rgb(9.020996%, 21.174622%, 36.471558%)" fill-opacity="1">
<use xlink:href="#glyph-0-3" x="95.977819" y="89.185564"/>
</g>
<path fill-rule="nonzero" fill="rgb(100%, 100%, 100%)" fill-opacity="1" stroke-width="0.89664" stroke-linecap="butt" stroke-linejoin="miter" stroke="rgb(25%, 25%, 25%)" stroke-opacity="1" stroke-miterlimit="10" d="M 11.847994 31.32345 C 11.847994 32.97271 10.508951 34.311753 8.859691 34.311753 C 7.206503 34.311753 5.871388 32.97271 5.871388 31.32345 C 5.871388 29.674189 7.206503 28.335147 8.859691 28.335147 C 10.508951 28.335147 11.847994 29.674189 11.847994 31.32345 Z M 11.847994 31.32345 " transform="matrix(0.994764, 0, 0, -0.994764, 60.639824, 100.780533)"/>
<path fill-rule="nonzero" fill="rgb(100%, 100%, 100%)" fill-opacity="1" stroke-width="0.89664" stroke-linecap="butt" stroke-linejoin="miter" stroke="rgb(25%, 25%, 25%)" stroke-opacity="1" stroke-miterlimit="10" d="M 23.612719 60.350436 C 23.612719 61.999696 22.273677 63.338739 20.620489 63.338739 C 18.971229 63.338739 17.632186 61.999696 17.632186 60.350436 C 17.632186 58.701175 18.971229 57.362133 20.620489 57.362133 C 22.273677 57.362133 23.612719 58.701175 23.612719 60.350436 Z M 23.612719 60.350436 " transform="matrix(0.994764, 0, 0, -0.994764, 60.639824, 100.780533)"/>
<path fill-rule="nonzero" fill="rgb(100%, 100%, 100%)" fill-opacity="1" stroke-width="0.89664" stroke-linecap="butt" stroke-linejoin="miter" stroke="rgb(25%, 25%, 25%)" stroke-opacity="1" stroke-miterlimit="10" d="M 36.225636 77.471331 C 36.225636 79.120592 34.886593 80.459634 33.237333 80.459634 C 31.584145 80.459634 30.249029 79.120592 30.249029 77.471331 C 30.249029 75.822071 31.584145 74.483028 33.237333 74.483028 C 34.886593 74.483028 36.225636 75.822071 36.225636 77.471331 Z M 36.225636 77.471331 " transform="matrix(0.994764, 0, 0, -0.994764, 60.639824, 100.780533)"/>
<path fill-rule="nonzero" fill="rgb(100%, 100%, 100%)" fill-opacity="1" stroke-width="0.89664" stroke-linecap="butt" stroke-linejoin="miter" stroke="rgb(25%, 25%, 25%)" stroke-opacity="1" stroke-miterlimit="10" d="M 50.538861 84.390372 C 50.538861 86.039632 49.203746 87.378675 47.550558 87.378675 C 45.901298 87.378675 44.562255 86.039632 44.562255 84.390372 C 44.562255 82.737185 45.901298 81.398142 47.550558 81.398142 C 49.203746 81.398142 50.538861 82.737185 50.538861 84.390372 Z M 50.538861 84.390372 " transform="matrix(0.994764, 0, 0, -0.994764, 60.639824, 100.780533)"/>
<path fill-rule="nonzero" fill="rgb(100%, 100%, 100%)" fill-opacity="1" stroke-width="0.89664" stroke-linecap="butt" stroke-linejoin="miter" stroke="rgb(25%, 25%, 25%)" stroke-opacity="1" stroke-miterlimit="10" d="M 66.20291 78.720057 C 66.20291 80.369318 64.863867 81.70836 63.214607 81.70836 C 61.561419 81.70836 60.226304 80.369318 60.226304 78.720057 C 60.226304 77.06687 61.561419 75.731754 63.214607 75.731754 C 64.863867 75.731754 66.20291 77.06687 66.20291 78.720057 Z M 66.20291 78.720057 " transform="matrix(0.994764, 0, 0, -0.994764, 60.639824, 100.780533)"/>
<path fill-rule="nonzero" fill="rgb(57.998657%, 57.998657%, 57.998657%)" fill-opacity="1" d="M 132.058594 68.277344 L 126.125 67.144531 L 126.125 42.890625 L 132.058594 44.027344 Z M 132.058594 68.277344 "/>
<path fill-rule="nonzero" fill="rgb(57.998657%, 57.998657%, 57.998657%)" fill-opacity="1" d="M 116.316406 75.511719 L 110.382812 74.375 L 110.382812 38.28125 L 116.316406 39.417969 Z M 116.316406 75.511719 "/>
<path fill-rule="nonzero" fill="rgb(87.998962%, 87.998962%, 87.998962%)" fill-opacity="1" d="M 116.316406 39.417969 L 110.382812 38.28125 L 116.679688 35.390625 L 122.613281 36.523438 Z M 116.316406 39.417969 "/>
<path fill-rule="nonzero" fill="rgb(57.998657%, 57.998657%, 57.998657%)" fill-opacity="1" d="M 122.613281 36.523438 L 116.679688 35.390625 L 116.679688 28.902344 L 122.613281 30.039062 Z M 122.613281 36.523438 "/>
<path fill-rule="nonzero" fill="rgb(87.998962%, 87.998962%, 87.998962%)" fill-opacity="1" d="M 122.613281 30.039062 L 116.679688 28.902344 L 124.429688 25.34375 L 130.363281 26.476562 Z M 122.613281 30.039062 "/>
<path fill-rule="nonzero" fill="rgb(87.998962%, 87.998962%, 87.998962%)" fill-opacity="1" d="M 130.363281 32.960938 L 124.429688 31.828125 L 130.726562 28.933594 L 136.660156 30.070312 Z M 130.363281 32.960938 "/>
<path fill-rule="nonzero" fill="rgb(72.999573%, 72.999573%, 72.999573%)" fill-opacity="1" d="M 136.660156 66.164062 L 132.058594 68.277344 L 132.058594 44.027344 L 120.917969 49.144531 L 120.917969 73.398438 L 116.316406 75.511719 L 116.316406 39.417969 L 122.613281 36.523438 L 122.613281 30.039062 L 130.363281 26.476562 L 130.363281 32.960938 L 136.660156 30.070312 Z M 136.660156 66.164062 "/>
<path fill-rule="nonzero" fill="rgb(9.020996%, 21.174622%, 36.471558%)" fill-opacity="1" d="M 125.503906 59.554688 C 125.503906 58.460938 124.617188 57.570312 123.523438 57.570312 C 122.425781 57.570312 121.539062 58.460938 121.539062 59.554688 C 121.539062 60.648438 122.425781 61.535156 123.523438 61.535156 C 124.617188 61.535156 125.503906 60.648438 125.503906 59.554688 Z M 125.503906 59.554688 "/>
<g fill="rgb(9.020996%, 21.174622%, 36.471558%)" fill-opacity="1">
<use xlink:href="#glyph-1-0" x="145.35094" y="76.30735"/>
<use xlink:href="#glyph-1-0" x="153.273791" y="76.30735"/>
</g>
<g fill="rgb(0%, 0%, 0%)" fill-opacity="1">
<use xlink:href="#glyph-2-0" x="71.190291" y="152.050668"/>
<use xlink:href="#glyph-2-1" x="78.485362" y="152.050668"/>
<use xlink:href="#glyph-2-2" x="82.88956" y="152.050668"/>
<use xlink:href="#glyph-2-1" x="85.918189" y="152.050668"/>
<use xlink:href="#glyph-2-3" x="90.322387" y="152.050668"/>
<use xlink:href="#glyph-2-1" x="94.204304" y="152.050668"/>
<use xlink:href="#glyph-2-4" x="98.608502" y="152.050668"/>
<use xlink:href="#glyph-2-5" x="104.11474" y="152.050668"/>
<use xlink:href="#glyph-2-1" x="108.518937" y="152.050668"/>
</g>
<g fill="rgb(0%, 0%, 0%)" fill-opacity="1">
<use xlink:href="#glyph-2-6" x="116.22331" y="152.050668"/>
<use xlink:href="#glyph-2-7" x="121.729548" y="152.050668"/>
<use xlink:href="#glyph-2-8" x="126.684766" y="152.050668"/>
<use xlink:href="#glyph-2-1" x="130.593442" y="152.050668"/>
</g>
<g fill="rgb(0%, 0%, 0%)" fill-opacity="1">
<use xlink:href="#glyph-2-2" x="138.307725" y="152.050668"/>
<use xlink:href="#glyph-2-3" x="141.336354" y="152.050668"/>
<use xlink:href="#glyph-2-7" x="145.218271" y="152.050668"/>
<use xlink:href="#glyph-2-9" x="150.173489" y="152.050668"/>
<use xlink:href="#glyph-2-1" x="158.431855" y="152.050668"/>
</g>
</svg>
