<?xml version="1.0" encoding="UTF-8"?>
<svg xmlns="http://www.w3.org/2000/svg" xmlns:xlink="http://www.w3.org/1999/xlink" width="242.588" height="30.895" viewBox="0 0 242.588 30.895">
<defs>
<g>
<g id="glyph-0-0">
<path d="M 11 -12.640625 C 11.15625 -13.265625 11.203125 -13.46875 12.21875 -13.46875 C 12.546875 -13.46875 12.75 -13.46875 12.75 -13.84375 C 12.75 -14.0625 12.5625 -14.0625 12.484375 -14.0625 C 12.125 -14.0625 11.734375 -14.03125 11.375 -14.03125 L 10.234375 -14.03125 C 9.375 -14.03125 8.46875 -14.0625 7.59375 -14.0625 C 7.40625 -14.0625 7.171875 -14.0625 7.171875 -13.6875 C 7.171875 -13.484375 7.328125 -13.484375 7.328125 -13.46875 L 7.84375 -13.46875 C 9.5 -13.46875 9.5 -13.296875 9.5 -13 C 9.5 -12.96875 9.5 -12.828125 9.40625 -12.5 L 7.046875 -3.09375 C 6.5 -0.984375 5.125 0.015625 4.140625 0.015625 C 3.4375 0.015625 2.453125 -0.3125 2.203125 -1.40625 C 2.28125 -1.375 2.390625 -1.359375 2.46875 -1.359375 C 3.15625 -1.359375 3.6875 -1.953125 3.6875 -2.546875 C 3.6875 -2.890625 3.484375 -3.3125 2.859375 -3.3125 C 2.484375 -3.3125 1.625 -3.109375 1.625 -1.765625 C 1.625 -0.46875 2.703125 0.4375 4.1875 0.4375 C 6.046875 0.4375 8.078125 -0.984375 8.5625 -2.9375 Z M 11 -12.640625 "/>
</g>
<g id="glyph-0-1">
<path d="M 9.078125 -8.875 C 9.078125 -8.984375 9 -9.0625 8.890625 -9.0625 C 8.734375 -9.0625 7.921875 -8.3125 7.53125 -7.59375 C 7.171875 -8.53125 6.53125 -9.078125 5.640625 -9.078125 C 3.3125 -9.078125 0.796875 -6.078125 0.796875 -3.03125 C 0.796875 -0.984375 2 0.203125 3.390625 0.203125 C 4.484375 0.203125 5.390625 -0.625 5.828125 -1.09375 L 5.84375 -1.078125 L 5.0625 2.015625 L 4.875 2.765625 C 4.703125 3.375 4.390625 3.375 3.421875 3.390625 C 3.1875 3.390625 2.984375 3.390625 2.984375 3.796875 C 2.984375 3.9375 3.109375 4 3.25 4 C 3.546875 4 3.90625 3.953125 4.203125 3.953125 L 6.296875 3.953125 C 6.609375 3.953125 6.953125 4 7.265625 4 C 7.390625 4 7.640625 4 7.640625 3.609375 C 7.640625 3.390625 7.46875 3.390625 7.171875 3.390625 C 6.203125 3.390625 6.140625 3.25 6.140625 3.09375 C 6.140625 2.984375 6.15625 2.96875 6.21875 2.703125 Z M 6.171875 -2.453125 C 6.078125 -2.09375 6.078125 -2.0625 5.78125 -1.671875 C 5.328125 -1.09375 4.421875 -0.203125 3.453125 -0.203125 C 2.609375 -0.203125 2.140625 -0.96875 2.140625 -2.1875 C 2.140625 -3.3125 2.78125 -5.625 3.171875 -6.484375 C 3.875 -7.921875 4.84375 -8.671875 5.640625 -8.671875 C 7 -8.671875 7.265625 -6.984375 7.265625 -6.8125 C 7.265625 -6.796875 7.203125 -6.53125 7.1875 -6.484375 Z M 6.171875 -2.453125 "/>
</g>
<g id="glyph-0-2">
<path d="M 4.015625 0.078125 C 4.015625 -1.109375 3.625 -2 2.78125 -2 C 2.125 -2 1.796875 -1.46875 1.796875 -1.015625 C 1.796875 -0.5625 2.09375 0 2.796875 0 C 3.0625 0 3.296875 -0.078125 3.484375 -0.265625 C 3.515625 -0.3125 3.546875 -0.3125 3.5625 -0.3125 C 3.609375 -0.3125 3.609375 -0.015625 3.609375 0.078125 C 3.609375 0.765625 3.484375 2.09375 2.28125 3.4375 C 2.0625 3.6875 2.0625 3.734375 2.0625 3.765625 C 2.0625 3.875 2.15625 3.96875 2.265625 3.96875 C 2.4375 3.96875 4.015625 2.453125 4.015625 0.078125 Z M 4.015625 0.078125 "/>
</g>
<g id="glyph-1-0">
<path d="M 6.296875 5.03125 C 6.296875 5 6.296875 4.96875 6.234375 4.90625 C 5.296875 3.9375 2.765625 1.296875 2.765625 -5.125 C 2.765625 -11.546875 5.25 -14.171875 6.265625 -15.203125 C 6.265625 -15.21875 6.296875 -15.265625 6.296875 -15.328125 C 6.296875 -15.390625 6.234375 -15.421875 6.15625 -15.421875 C 5.9375 -15.421875 4.1875 -13.90625 3.171875 -11.640625 C 2.140625 -9.34375 1.859375 -7.125 1.859375 -5.140625 C 1.859375 -3.671875 2 -1.15625 3.234375 1.5 C 4.21875 3.640625 5.90625 5.140625 6.15625 5.140625 C 6.265625 5.140625 6.296875 5.109375 6.296875 5.03125 Z M 6.296875 5.03125 "/>
</g>
<g id="glyph-1-1">
<path d="M 5.421875 -5.125 C 5.421875 -6.609375 5.265625 -9.125 4.03125 -11.78125 C 3.046875 -13.921875 1.359375 -15.421875 1.109375 -15.421875 C 1.046875 -15.421875 0.96875 -15.40625 0.96875 -15.296875 C 0.96875 -15.265625 0.984375 -15.234375 1.015625 -15.203125 C 2 -14.171875 4.515625 -11.546875 4.515625 -5.140625 C 4.515625 1.28125 2.015625 3.890625 1.015625 4.921875 C 0.984375 4.96875 0.96875 4.984375 0.96875 5.03125 C 0.96875 5.125 1.046875 5.140625 1.109375 5.140625 C 1.34375 5.140625 3.09375 3.625 4.09375 1.359375 C 5.125 -0.921875 5.421875 -3.15625 5.421875 -5.125 Z M 5.421875 -5.125 "/>
</g>
<g id="glyph-1-2">
<path d="M 3.390625 -12.6875 C 3.390625 -13.1875 3 -13.53125 2.578125 -13.53125 C 2.078125 -13.53125 1.734375 -13.140625 1.734375 -12.6875 C 1.734375 -12.1875 2.125 -11.84375 2.546875 -11.84375 C 3.046875 -11.84375 3.390625 -12.234375 3.390625 -12.6875 Z M 3.390625 -12.6875 "/>
</g>
<g id="glyph-1-3">
<path d="M 13.234375 -6.609375 C 13.546875 -6.609375 13.859375 -6.609375 13.859375 -6.953125 C 13.859375 -7.328125 13.515625 -7.328125 13.15625 -7.328125 L 1.640625 -7.328125 C 1.296875 -7.328125 0.953125 -7.328125 0.953125 -6.953125 C 0.953125 -6.609375 1.25 -6.609375 1.5625 -6.609375 Z M 13.15625 -2.9375 C 13.515625 -2.9375 13.859375 -2.9375 13.859375 -3.3125 C 13.859375 -3.671875 13.546875 -3.671875 13.234375 -3.671875 L 1.5625 -3.671875 C 1.25 -3.671875 0.953125 -3.671875 0.953125 -3.3125 C 0.953125 -2.9375 1.296875 -2.9375 1.640625 -2.9375 Z M 13.15625 -2.9375 "/>
</g>
<g id="glyph-1-4">
<path d="M 8.65625 -6.609375 C 8.65625 -7.859375 8.625 -10.015625 7.765625 -11.65625 C 7 -13.09375 5.78125 -13.609375 4.71875 -13.609375 C 3.734375 -13.609375 2.46875 -13.15625 1.6875 -11.671875 C 0.859375 -10.125 0.78125 -8.21875 0.78125 -6.609375 C 0.78125 -5.4375 0.796875 -3.640625 1.4375 -2.078125 C 2.328125 0.046875 3.90625 0.328125 4.71875 0.328125 C 5.65625 0.328125 7.109375 -0.0625 7.953125 -2.015625 C 8.5625 -3.4375 8.65625 -5.109375 8.65625 -6.609375 Z M 4.71875 0 C 3.390625 0 2.609375 -1.125 2.328125 -2.703125 C 2.09375 -3.90625 2.09375 -5.6875 2.09375 -6.84375 C 2.09375 -8.421875 2.09375 -9.734375 2.375 -11 C 2.765625 -12.75 3.90625 -13.28125 4.71875 -13.28125 C 5.5625 -13.28125 6.65625 -12.734375 7.046875 -11.03125 C 7.3125 -9.859375 7.328125 -8.484375 7.328125 -6.84375 C 7.328125 -5.5 7.328125 -3.84375 7.078125 -2.640625 C 6.65625 -0.390625 5.4375 0 4.71875 0 Z M 4.71875 0 "/>
</g>
<g id="glyph-2-0">
<path d="M 6.359375 -3.46875 C 6.359375 -4.796875 6.359375 -5.203125 6.03125 -5.65625 C 5.625 -6.21875 4.953125 -6.3125 4.453125 -6.3125 C 3.078125 -6.3125 2.53125 -5.125 2.421875 -4.828125 L 2.40625 -4.828125 L 2.40625 -6.3125 L 0.453125 -6.140625 L 0.453125 -5.734375 C 1.421875 -5.734375 1.546875 -5.640625 1.546875 -4.9375 L 1.546875 -1.0625 C 1.546875 -0.421875 1.390625 -0.421875 0.453125 -0.421875 L 0.453125 0 C 0.828125 -0.03125 1.59375 -0.03125 2 -0.03125 C 2.421875 -0.03125 3.1875 -0.03125 3.5625 0 L 3.5625 -0.421875 C 2.640625 -0.421875 2.46875 -0.421875 2.46875 -1.0625 L 2.46875 -3.71875 C 2.46875 -5.21875 3.453125 -6.015625 4.34375 -6.015625 C 5.234375 -6.015625 5.4375 -5.296875 5.4375 -4.421875 L 5.4375 -1.0625 C 5.4375 -0.421875 5.28125 -0.421875 4.34375 -0.421875 L 4.34375 0 C 4.71875 -0.03125 5.484375 -0.03125 5.890625 -0.03125 C 6.3125 -0.03125 7.078125 -0.03125 7.453125 0 L 7.453125 -0.421875 C 6.734375 -0.421875 6.375 -0.421875 6.359375 -0.84375 Z M 6.359375 -3.46875 "/>
</g>
<g id="glyph-2-1">
<path d="M 4.34375 -6.140625 L 4.34375 -5.734375 C 5.3125 -5.734375 5.4375 -5.640625 5.4375 -4.9375 L 5.4375 -2.375 C 5.4375 -1.15625 4.796875 -0.140625 3.71875 -0.140625 C 2.546875 -0.140625 2.46875 -0.8125 2.46875 -1.578125 L 2.46875 -6.3125 L 0.453125 -6.140625 L 0.453125 -5.734375 C 1.546875 -5.734375 1.546875 -5.6875 1.546875 -4.421875 L 1.546875 -2.265625 C 1.546875 -1.390625 1.546875 -0.875 1.96875 -0.40625 C 2.3125 -0.03125 2.90625 0.140625 3.625 0.140625 C 3.875 0.140625 4.328125 0.140625 4.8125 -0.265625 C 5.234375 -0.59375 5.46875 -1.140625 5.46875 -1.140625 L 5.46875 0.140625 L 7.453125 0 L 7.453125 -0.421875 C 6.46875 -0.421875 6.359375 -0.515625 6.359375 -1.21875 L 6.359375 -6.3125 Z M 4.34375 -6.140625 "/>
</g>
<g id="glyph-2-2">
<path d="M 2.453125 -9.921875 L 0.46875 -9.765625 L 0.46875 -9.34375 C 1.4375 -9.34375 1.5625 -9.25 1.5625 -8.546875 L 1.5625 -1.0625 C 1.5625 -0.421875 1.40625 -0.421875 0.46875 -0.421875 L 0.46875 0 C 0.875 -0.03125 1.578125 -0.03125 2 -0.03125 C 2.4375 -0.03125 3.140625 -0.03125 3.546875 0 L 3.546875 -0.421875 C 2.625 -0.421875 2.453125 -0.421875 2.453125 -1.0625 Z M 2.453125 -9.921875 "/>
</g>
<g id="glyph-2-3">
<path d="M 1.765625 -4.96875 C 1.765625 -8.59375 3.515625 -9.171875 4.28125 -9.171875 C 4.796875 -9.171875 5.3125 -9 5.59375 -8.578125 C 5.421875 -8.578125 4.875 -8.578125 4.875 -7.984375 C 4.875 -7.671875 5.09375 -7.40625 5.46875 -7.40625 C 5.8125 -7.40625 6.0625 -7.625 6.0625 -8.03125 C 6.0625 -8.78125 5.515625 -9.5 4.28125 -9.5 C 2.46875 -9.5 0.59375 -7.65625 0.59375 -4.515625 C 0.59375 -0.59375 2.296875 0.296875 3.515625 0.296875 C 5.078125 0.296875 6.40625 -1.0625 6.40625 -2.921875 C 6.40625 -4.8125 5.078125 -6.09375 3.640625 -6.09375 C 2.375 -6.09375 1.90625 -4.984375 1.765625 -4.59375 Z M 3.515625 -0.078125 C 2.609375 -0.078125 2.1875 -0.890625 2.0625 -1.1875 C 1.9375 -1.5625 1.78125 -2.265625 1.78125 -3.265625 C 1.78125 -4.390625 2.296875 -5.796875 3.59375 -5.796875 C 4.375 -5.796875 4.796875 -5.28125 5 -4.796875 C 5.234375 -4.265625 5.234375 -3.546875 5.234375 -2.9375 C 5.234375 -2.203125 5.234375 -1.5625 4.96875 -1.015625 C 4.609375 -0.328125 4.09375 -0.078125 3.515625 -0.078125 Z M 3.515625 -0.078125 "/>
</g>
<g id="glyph-2-4">
<path d="M 6.796875 -8.875 L 6.796875 -9.203125 L 3.34375 -9.203125 C 1.609375 -9.203125 1.59375 -9.390625 1.53125 -9.671875 L 1.21875 -9.671875 L 0.765625 -6.8125 L 1.09375 -6.8125 C 1.125 -7.0625 1.265625 -7.953125 1.4375 -8.109375 C 1.5625 -8.1875 2.625 -8.1875 2.828125 -8.1875 L 5.859375 -8.1875 L 4.34375 -6.015625 C 3.953125 -5.46875 2.515625 -3.109375 2.515625 -0.421875 C 2.515625 -0.265625 2.515625 0.296875 3.109375 0.296875 C 3.703125 0.296875 3.703125 -0.25 3.703125 -0.4375 L 3.703125 -1.15625 C 3.703125 -3.28125 4.046875 -4.953125 4.71875 -5.90625 Z M 6.796875 -8.875 "/>
</g>
<g id="glyph-3-0">
<path d="M 11.28125 -4.734375 C 11.640625 -4.734375 12 -4.734375 12 -5.140625 C 12 -5.5625 11.640625 -5.5625 11.28125 -5.5625 L 2.546875 -5.5625 C 2.796875 -8.3125 5.171875 -10.296875 8.078125 -10.296875 L 11.28125 -10.296875 C 11.640625 -10.296875 12 -10.296875 12 -10.703125 C 12 -11.125 11.640625 -11.125 11.28125 -11.125 L 8.03125 -11.125 C 4.515625 -11.125 1.703125 -8.4375 1.703125 -5.140625 C 1.703125 -1.859375 4.515625 0.828125 8.03125 0.828125 L 11.28125 0.828125 C 11.640625 0.828125 12 0.828125 12 0.40625 C 12 0 11.640625 0 11.28125 0 L 8.078125 0 C 5.171875 0 2.796875 -1.984375 2.546875 -4.734375 Z M 11.28125 -4.734375 "/>
</g>
<g id="glyph-4-0">
<path d="M 5.328125 -6.234375 L 6.03125 -6.234375 L 9.015625 -1.625 C 9.21875 -1.3125 9.6875 -0.53125 9.90625 -0.234375 C 10.046875 0 10.109375 0 10.5625 0 L 13.3125 0 C 13.65625 0 13.96875 0 13.96875 -0.359375 C 13.96875 -0.515625 13.84375 -0.65625 13.65625 -0.6875 C 12.921875 -0.859375 11.953125 -2.171875 11.484375 -2.796875 C 11.34375 -3 10.34375 -4.3125 9.015625 -6.453125 C 10.78125 -6.765625 12.484375 -7.53125 12.484375 -9.890625 C 12.484375 -12.65625 9.578125 -13.609375 7.234375 -13.609375 L 1 -13.609375 C 0.640625 -13.609375 0.3125 -13.609375 0.3125 -13.25 C 0.3125 -12.90625 0.6875 -12.90625 0.859375 -12.90625 C 1.984375 -12.90625 2.078125 -12.765625 2.078125 -11.78125 L 2.078125 -1.828125 C 2.078125 -0.828125 1.984375 -0.6875 0.859375 -0.6875 C 0.6875 -0.6875 0.3125 -0.6875 0.3125 -0.359375 C 0.3125 0 0.640625 0 1 0 L 6.4375 0 C 6.796875 0 7.09375 0 7.09375 -0.359375 C 7.09375 -0.6875 6.75 -0.6875 6.53125 -0.6875 C 5.40625 -0.6875 5.328125 -0.859375 5.328125 -1.828125 Z M 9.15625 -7.203125 C 9.71875 -7.9375 9.765625 -9 9.765625 -9.875 C 9.765625 -10.828125 9.65625 -11.875 9.015625 -12.6875 C 9.828125 -12.515625 11.796875 -11.890625 11.796875 -9.890625 C 11.796875 -8.59375 11.203125 -7.59375 9.15625 -7.203125 Z M 5.328125 -11.84375 C 5.328125 -12.25 5.328125 -12.90625 6.546875 -12.90625 C 8.234375 -12.90625 9.078125 -12.21875 9.078125 -9.875 C 9.078125 -7.3125 8.453125 -6.9375 5.328125 -6.9375 Z M 2.625 -0.6875 C 2.78125 -1.046875 2.78125 -1.609375 2.78125 -1.78125 L 2.78125 -11.8125 C 2.78125 -12.015625 2.78125 -12.546875 2.625 -12.90625 L 4.890625 -12.90625 C 4.625 -12.59375 4.625 -12.1875 4.625 -11.890625 L 4.625 -1.78125 C 4.625 -1.59375 4.625 -1.046875 4.78125 -0.6875 Z M 6.84375 -6.234375 C 6.984375 -6.25 7.0625 -6.28125 7.234375 -6.28125 C 7.53125 -6.28125 7.96875 -6.3125 8.265625 -6.359375 C 8.5625 -5.875 10.703125 -2.34375 12.359375 -0.6875 L 10.421875 -0.6875 Z M 6.84375 -6.234375 "/>
</g>
<g id="glyph-5-0">
<path d="M 5.5625 -3.96875 L 2.703125 -6.8125 C 2.53125 -6.984375 2.5 -7.015625 2.390625 -7.015625 C 2.25 -7.015625 2.109375 -6.890625 2.109375 -6.734375 C 2.109375 -6.640625 2.125 -6.609375 2.28125 -6.453125 L 5.140625 -3.578125 L 2.28125 -0.703125 C 2.125 -0.546875 2.109375 -0.515625 2.109375 -0.421875 C 2.109375 -0.25 2.25 -0.125 2.390625 -0.125 C 2.5 -0.125 2.53125 -0.15625 2.703125 -0.328125 L 5.546875 -3.171875 L 8.5 -0.21875 C 8.53125 -0.203125 8.640625 -0.125 8.71875 -0.125 C 8.890625 -0.125 9 -0.25 9 -0.421875 C 9 -0.4375 9 -0.5 8.96875 -0.578125 C 8.953125 -0.59375 6.671875 -2.84375 5.96875 -3.578125 L 8.578125 -6.1875 C 8.65625 -6.28125 8.859375 -6.46875 8.9375 -6.546875 C 8.953125 -6.578125 9 -6.640625 9 -6.734375 C 9 -6.890625 8.890625 -7.015625 8.71875 -7.015625 C 8.609375 -7.015625 8.546875 -6.96875 8.390625 -6.8125 Z M 5.5625 -3.96875 "/>
</g>
</g>
</defs>
<g fill="rgb(0%, 0%, 0%)" fill-opacity="1">
<use xlink:href="#glyph-0-0" x="4.177035" y="21.68829"/>
</g>
<g fill="rgb(0%, 0%, 0%)" fill-opacity="1">
<use xlink:href="#glyph-1-0" x="17.228677" y="21.68829"/>
</g>
<g fill="rgb(0%, 0%, 0%)" fill-opacity="1">
<use xlink:href="#glyph-0-1" x="24.520894" y="21.68829"/>
</g>
<g fill="rgb(0%, 0%, 0%)" fill-opacity="1">
<use xlink:href="#glyph-1-1" x="34.199998" y="21.68829"/>
</g>
<g fill="rgb(0%, 0%, 0%)" fill-opacity="1">
<use xlink:href="#glyph-1-2" x="48.874127" y="21.686297"/>
</g>
<g fill="rgb(0%, 0%, 0%)" fill-opacity="1">
<use xlink:href="#glyph-0-1" x="44.92455" y="21.68829"/>
</g>
<g fill="rgb(0%, 0%, 0%)" fill-opacity="1">
<use xlink:href="#glyph-2-0" x="53.864168" y="24.776793"/>
</g>
<g fill="rgb(0%, 0%, 0%)" fill-opacity="1">
<use xlink:href="#glyph-2-1" x="61.256031" y="24.776793"/>
<use xlink:href="#glyph-2-2" x="69.03393" y="24.776793"/>
<use xlink:href="#glyph-2-2" x="72.922879" y="24.776793"/>
</g>
<g fill="rgb(0%, 0%, 0%)" fill-opacity="1">
<use xlink:href="#glyph-1-3" x="83.025061" y="21.68829"/>
</g>
<g fill="rgb(0%, 0%, 0%)" fill-opacity="1">
<use xlink:href="#glyph-1-4" x="103.572272" y="21.68829"/>
</g>
<g fill="rgb(0%, 0%, 0%)" fill-opacity="1">
<use xlink:href="#glyph-0-2" x="113.012147" y="21.68829"/>
</g>
<g fill="rgb(0%, 0%, 0%)" fill-opacity="1">
<use xlink:href="#glyph-0-0" x="159.818931" y="21.68829"/>
</g>
<g fill="rgb(0%, 0%, 0%)" fill-opacity="1">
<use xlink:href="#glyph-3-0" x="178.593262" y="21.68829"/>
</g>
<g fill="rgb(0%, 0%, 0%)" fill-opacity="1">
<use xlink:href="#glyph-4-0" x="198.042163" y="21.68829"/>
</g>
<g fill="rgb(0%, 0%, 0%)" fill-opacity="1">
<use xlink:href="#glyph-2-3" x="212.383423" y="13.185189"/>
</g>
<g fill="rgb(0%, 0%, 0%)" fill-opacity="1">
<use xlink:href="#glyph-5-0" x="219.383632" y="13.185189"/>
</g>
<g fill="rgb(0%, 0%, 0%)" fill-opacity="1">
<use xlink:href="#glyph-2-4" x="230.503839" y="13.185189"/>
</g>
</svg>
