<?xml version="1.0" encoding="UTF-8"?>
<svg xmlns="http://www.w3.org/2000/svg" xmlns:xlink="http://www.w3.org/1999/xlink" width="171.654" height="26.64" viewBox="0 0 171.654 26.64">
<defs>
<g>
<g id="glyph-0-0">
<path d="M 3.5 -14.59375 C 3.5 -14.921875 3.5 -15.296875 3.09375 -15.296875 C 2.6875 -15.296875 2.6875 -14.84375 2.6875 -14.53125 L 2.6875 4.34375 C 2.6875 4.671875 2.6875 5.09375 3.09375 5.09375 C 3.5 5.09375 3.5 4.734375 3.5 4.40625 Z M 7.484375 -14.53125 C 7.484375 -14.859375 7.484375 -15.296875 7.078125 -15.296875 C 6.671875 -15.296875 6.671875 -14.921875 6.671875 -14.59375 L 6.671875 4.40625 C 6.671875 4.734375 6.671875 5.09375 7.078125 5.09375 C 7.484375 5.09375 7.484375 4.65625 7.484375 4.34375 Z M 7.484375 -14.53125 "/>
</g>
<g id="glyph-0-1">
<path d="M 13.4375 -4.6875 C 13.78125 -4.6875 14.15625 -4.6875 14.15625 -5.09375 C 14.15625 -5.5 13.78125 -5.5 13.4375 -5.5 L 2.40625 -5.5 C 2.0625 -5.5 1.6875 -5.5 1.6875 -5.09375 C 1.6875 -4.6875 2.0625 -4.6875 2.40625 -4.6875 Z M 13.4375 -4.6875 "/>
</g>
<g id="glyph-1-0">
<path d="M 0.875 2.59375 C 0.734375 3.203125 0.65625 3.359375 -0.1875 3.359375 C -0.421875 3.359375 -0.625 3.359375 -0.625 3.75 C -0.625 3.796875 -0.609375 3.953125 -0.390625 3.953125 C -0.125 3.953125 0.15625 3.921875 0.421875 3.921875 L 1.3125 3.921875 C 1.734375 3.921875 2.765625 3.953125 3.203125 3.953125 C 3.328125 3.953125 3.5625 3.953125 3.5625 3.59375 C 3.5625 3.359375 3.421875 3.359375 3.078125 3.359375 C 2.140625 3.359375 2.078125 3.21875 2.078125 3.0625 C 2.078125 2.8125 3 -0.6875 3.125 -1.15625 C 3.34375 -0.59375 3.890625 0.203125 4.953125 0.203125 C 7.265625 0.203125 9.75 -2.796875 9.75 -5.796875 C 9.75 -7.671875 8.6875 -9 7.15625 -9 C 5.859375 -9 4.75 -7.734375 4.53125 -7.4375 C 4.359375 -8.46875 3.5625 -9 2.75 -9 C 2.15625 -9 1.6875 -8.703125 1.3125 -7.9375 C 0.9375 -7.203125 0.65625 -5.953125 0.65625 -5.875 C 0.65625 -5.796875 0.734375 -5.6875 0.875 -5.6875 C 1.046875 -5.6875 1.0625 -5.703125 1.1875 -6.171875 C 1.484375 -7.375 1.875 -8.578125 2.6875 -8.578125 C 3.15625 -8.578125 3.328125 -8.265625 3.328125 -7.640625 C 3.328125 -7.15625 3.265625 -6.953125 3.1875 -6.59375 Z M 4.40625 -6.359375 C 4.546875 -6.9375 5.125 -7.53125 5.4375 -7.8125 C 5.671875 -8.015625 6.34375 -8.578125 7.109375 -8.578125 C 8.015625 -8.578125 8.421875 -7.6875 8.421875 -6.625 C 8.421875 -5.640625 7.84375 -3.34375 7.34375 -2.28125 C 6.828125 -1.1875 5.890625 -0.203125 4.953125 -0.203125 C 3.5625 -0.203125 3.34375 -1.953125 3.34375 -2.03125 C 3.34375 -2.09375 3.390625 -2.265625 3.40625 -2.359375 Z M 4.40625 -6.359375 "/>
</g>
<g id="glyph-1-1">
<path d="M 13.4375 -9.9375 C 13.796875 -10.09375 13.84375 -10.234375 13.84375 -10.359375 C 13.84375 -10.578125 13.6875 -10.75 13.453125 -10.75 C 13.421875 -10.75 13.390625 -10.71875 13.109375 -10.609375 L 2.078125 -5.53125 C 1.71875 -5.359375 1.671875 -5.21875 1.671875 -5.09375 C 1.671875 -4.953125 1.6875 -4.828125 2.078125 -4.65625 L 13.109375 0.421875 C 13.375 0.546875 13.421875 0.578125 13.453125 0.578125 C 13.6875 0.578125 13.84375 0.40625 13.84375 0.1875 C 13.84375 0.0625 13.796875 -0.078125 13.4375 -0.25 L 2.9375 -5.078125 Z M 13.4375 -9.9375 "/>
</g>
<g id="glyph-2-0">
<path d="M 7.125 -9.46875 C 7.140625 -9.53125 7.15625 -9.609375 7.15625 -9.6875 C 7.15625 -9.828125 7.015625 -9.828125 7 -9.828125 C 6.984375 -9.828125 6.28125 -9.765625 6.21875 -9.75 C 5.96875 -9.734375 5.765625 -9.71875 5.5 -9.703125 C 5.15625 -9.671875 5.046875 -9.65625 5.046875 -9.40625 C 5.046875 -9.265625 5.171875 -9.265625 5.359375 -9.265625 C 6.0625 -9.265625 6.078125 -9.125 6.078125 -8.984375 C 6.078125 -8.90625 6.046875 -8.796875 6.03125 -8.75 L 5.171875 -5.3125 C 5.015625 -5.671875 4.625 -6.25 3.890625 -6.25 C 2.296875 -6.25 0.5625 -4.171875 0.5625 -2.078125 C 0.5625 -0.671875 1.390625 0.140625 2.34375 0.140625 C 3.125 0.140625 3.796875 -0.46875 4.1875 -0.9375 C 4.328125 -0.09375 5 0.140625 5.421875 0.140625 C 5.84375 0.140625 6.1875 -0.109375 6.4375 -0.625 C 6.671875 -1.109375 6.859375 -1.96875 6.859375 -2.03125 C 6.859375 -2.09375 6.8125 -2.15625 6.71875 -2.15625 C 6.59375 -2.15625 6.578125 -2.078125 6.53125 -1.875 C 6.3125 -1.03125 6.046875 -0.140625 5.46875 -0.140625 C 5.046875 -0.140625 5.03125 -0.515625 5.03125 -0.796875 C 5.03125 -0.84375 5.03125 -1.140625 5.125 -1.546875 Z M 4.265625 -1.6875 C 4.1875 -1.4375 4.1875 -1.421875 3.984375 -1.140625 C 3.6875 -0.75 3.0625 -0.140625 2.390625 -0.140625 C 1.8125 -0.140625 1.484375 -0.671875 1.484375 -1.5 C 1.484375 -2.28125 1.921875 -3.859375 2.1875 -4.453125 C 2.671875 -5.453125 3.34375 -5.953125 3.890625 -5.953125 C 4.828125 -5.953125 5.015625 -4.796875 5.015625 -4.6875 C 5.015625 -4.671875 4.96875 -4.484375 4.953125 -4.453125 Z M 4.265625 -1.6875 "/>
</g>
<g id="glyph-3-0">
<path d="M 9.03125 -3.625 L 8.71875 -3.625 C 8.375 -1.421875 8.046875 -0.40625 5.640625 -0.40625 L 3.71875 -0.40625 C 3.09375 -0.40625 3.078125 -0.515625 3.078125 -0.984375 L 3.078125 -4.796875 L 4.359375 -4.796875 C 5.71875 -4.796875 5.875 -4.359375 5.875 -3.140625 L 6.1875 -3.140625 L 6.1875 -6.859375 L 5.875 -6.859375 C 5.875 -5.640625 5.71875 -5.203125 4.359375 -5.203125 L 3.078125 -5.203125 L 3.078125 -8.65625 C 3.078125 -9.125 3.09375 -9.234375 3.71875 -9.234375 L 5.609375 -9.234375 C 7.6875 -9.234375 8.125 -8.515625 8.34375 -6.484375 L 8.65625 -6.484375 L 8.28125 -9.640625 L 0.578125 -9.640625 L 0.578125 -9.234375 L 0.859375 -9.234375 C 1.875 -9.234375 1.921875 -9.09375 1.921875 -8.5625 L 1.921875 -1.078125 C 1.921875 -0.546875 1.875 -0.40625 0.859375 -0.40625 L 0.578125 -0.40625 L 0.578125 0 L 8.46875 0 Z M 9.03125 -3.625 "/>
</g>
<g id="glyph-4-0">
<path d="M 8.5 -3.15625 L 8.140625 -3.15625 C 7.9375 -1.71875 7.765625 -1.46875 7.6875 -1.34375 C 7.578125 -1.1875 6.109375 -1.1875 5.828125 -1.1875 L 1.921875 -1.1875 C 2.65625 -1.984375 4.078125 -3.421875 5.8125 -5.09375 C 7.0625 -6.28125 8.5 -7.671875 8.5 -9.6875 C 8.5 -12.09375 6.59375 -13.484375 4.4375 -13.484375 C 2.203125 -13.484375 0.84375 -11.5 0.84375 -9.671875 C 0.84375 -8.875 1.421875 -8.765625 1.671875 -8.765625 C 1.875 -8.765625 2.484375 -8.890625 2.484375 -9.609375 C 2.484375 -10.234375 1.953125 -10.421875 1.671875 -10.421875 C 1.546875 -10.421875 1.421875 -10.40625 1.34375 -10.359375 C 1.734375 -12.09375 2.921875 -12.953125 4.15625 -12.953125 C 5.9375 -12.953125 7.09375 -11.546875 7.09375 -9.6875 C 7.09375 -7.90625 6.0625 -6.375 4.890625 -5.0625 L 0.84375 -0.46875 L 0.84375 0 L 8.015625 0 Z M 8.5 -3.15625 "/>
</g>
<g id="glyph-4-1">
<path d="M 13.78125 -6.203125 C 13.78125 -7.21875 13.59375 -8.9375 11.171875 -8.9375 C 9.78125 -8.9375 8.828125 -8 8.46875 -6.890625 L 8.4375 -6.890625 C 8.203125 -8.5625 7 -8.9375 5.859375 -8.9375 C 4.234375 -8.9375 3.40625 -7.6875 3.09375 -6.875 L 3.078125 -6.875 L 3.078125 -8.9375 L 0.671875 -8.703125 L 0.671875 -8.171875 C 1.875 -8.171875 2.0625 -8.046875 2.0625 -7.078125 L 2.0625 -1.40625 C 2.0625 -0.625 1.984375 -0.53125 0.671875 -0.53125 L 0.671875 0 C 1.15625 -0.046875 2.0625 -0.046875 2.59375 -0.046875 C 3.125 -0.046875 4.03125 -0.046875 4.53125 0 L 4.53125 -0.53125 C 3.21875 -0.53125 3.140625 -0.609375 3.140625 -1.40625 L 3.140625 -5.328125 C 3.140625 -7.203125 4.28125 -8.609375 5.703125 -8.609375 C 7.21875 -8.609375 7.375 -7.265625 7.375 -6.28125 L 7.375 -1.40625 C 7.375 -0.625 7.296875 -0.53125 6 -0.53125 L 6 0 C 6.484375 -0.046875 7.375 -0.046875 7.90625 -0.046875 C 8.4375 -0.046875 9.359375 -0.046875 9.84375 0 L 9.84375 -0.53125 C 8.546875 -0.53125 8.46875 -0.609375 8.46875 -1.40625 L 8.46875 -5.328125 C 8.46875 -7.203125 9.609375 -8.609375 11.03125 -8.609375 C 12.546875 -8.609375 12.703125 -7.265625 12.703125 -6.28125 L 12.703125 -1.40625 C 12.703125 -0.625 12.625 -0.53125 11.3125 -0.53125 L 11.3125 0 C 11.8125 -0.046875 12.703125 -0.046875 13.234375 -0.046875 C 13.765625 -0.046875 14.6875 -0.046875 15.171875 0 L 15.171875 -0.53125 C 13.859375 -0.53125 13.78125 -0.609375 13.78125 -1.40625 Z M 13.78125 -6.203125 "/>
</g>
</g>
</defs>
<g fill="rgb(0%, 0%, 0%)" fill-opacity="1">
<use xlink:href="#glyph-0-0" x="3.922813" y="18.23952"/>
</g>
<g fill="rgb(0%, 0%, 0%)" fill-opacity="1">
<use xlink:href="#glyph-1-0" x="14.116067" y="18.23952"/>
</g>
<g fill="rgb(0%, 0%, 0%)" fill-opacity="1">
<use xlink:href="#glyph-2-0" x="24.13468" y="21.2972"/>
</g>
<g fill="rgb(0%, 0%, 0%)" fill-opacity="1">
<use xlink:href="#glyph-0-1" x="36.358493" y="18.23952"/>
</g>
<g fill="rgb(0%, 0%, 0%)" fill-opacity="1">
<use xlink:href="#glyph-1-0" x="56.745987" y="18.23952"/>
</g>
<g fill="rgb(0%, 0%, 0%)" fill-opacity="1">
<use xlink:href="#glyph-3-0" x="66.7646" y="21.2972"/>
<use xlink:href="#glyph-3-0" x="76.194606" y="21.2972"/>
</g>
<g fill="rgb(0%, 0%, 0%)" fill-opacity="1">
<use xlink:href="#glyph-0-0" x="86.116093" y="18.23952"/>
</g>
<g fill="rgb(0%, 0%, 0%)" fill-opacity="1">
<use xlink:href="#glyph-1-1" x="101.972813" y="18.23952"/>
</g>
<g fill="rgb(0%, 0%, 0%)" fill-opacity="1">
<use xlink:href="#glyph-4-0" x="123.16148" y="18.23952"/>
</g>
<g fill="rgb(0%, 0%, 0%)" fill-opacity="1">
<use xlink:href="#glyph-4-1" x="135.915587" y="18.23952"/>
<use xlink:href="#glyph-4-1" x="151.65639" y="18.23952"/>
</g>
</svg>
