<?xml version="1.0" encoding="UTF-8"?>
<svg xmlns="http://www.w3.org/2000/svg" xmlns:xlink="http://www.w3.org/1999/xlink" width="43.188pt" height="19.914pt" viewBox="0 0 43.188 19.914">
<defs>
<g>
<g id="glyph-0-0">
<path d="M 3.390625 -6.796875 L 4.953125 -6.796875 C 5.265625 -6.796875 5.4375 -6.796875 5.4375 -7.09375 C 5.4375 -7.28125 5.34375 -7.28125 5 -7.28125 L 3.515625 -7.28125 L 4.140625 -9.75 C 4.203125 -9.984375 4.203125 -10.015625 4.203125 -10.140625 C 4.203125 -10.40625 3.984375 -10.5625 3.765625 -10.5625 C 3.625 -10.5625 3.25 -10.5 3.109375 -9.96875 L 2.453125 -7.28125 L 0.859375 -7.28125 C 0.53125 -7.28125 0.375 -7.28125 0.375 -6.953125 C 0.375 -6.796875 0.484375 -6.796875 0.8125 -6.796875 L 2.3125 -6.796875 L 1.203125 -2.328125 C 1.0625 -1.734375 1.015625 -1.578125 1.015625 -1.34375 C 1.015625 -0.5625 1.578125 0.171875 2.515625 0.171875 C 4.21875 0.171875 5.140625 -2.296875 5.140625 -2.421875 C 5.140625 -2.515625 5.0625 -2.5625 4.96875 -2.5625 C 4.9375 -2.5625 4.859375 -2.5625 4.828125 -2.5 C 4.8125 -2.484375 4.796875 -2.46875 4.671875 -2.203125 C 4.328125 -1.34375 3.546875 -0.171875 2.5625 -0.171875 C 2.0625 -0.171875 2.03125 -0.59375 2.03125 -0.96875 C 2.03125 -0.984375 2.03125 -1.296875 2.078125 -1.5 Z M 3.390625 -6.796875 "/>
</g>
<g id="glyph-0-1">
<path d="M 3.296875 0.0625 C 3.296875 -0.90625 2.96875 -1.640625 2.28125 -1.640625 C 1.734375 -1.640625 1.46875 -1.203125 1.46875 -0.828125 C 1.46875 -0.453125 1.71875 0 2.296875 0 C 2.515625 0 2.703125 -0.0625 2.859375 -0.21875 C 2.890625 -0.25 2.90625 -0.25 2.921875 -0.25 C 2.953125 -0.25 2.953125 -0.015625 2.953125 0.0625 C 2.953125 0.625 2.859375 1.71875 1.875 2.828125 C 1.6875 3.015625 1.6875 3.0625 1.6875 3.09375 C 1.6875 3.171875 1.78125 3.265625 1.859375 3.265625 C 2 3.265625 3.296875 2.015625 3.296875 0.0625 Z M 3.296875 0.0625 "/>
</g>
<g id="glyph-1-0">
<path d="M 3.375 -7.515625 C 3.375 -7.796875 3.375 -7.796875 3.140625 -7.796875 C 2.859375 -7.484375 2.28125 -7.046875 1.0625 -7.046875 L 1.0625 -6.71875 C 1.34375 -6.71875 1.921875 -6.71875 2.5625 -7.015625 L 2.5625 -0.90625 C 2.5625 -0.484375 2.53125 -0.34375 1.5 -0.34375 L 1.140625 -0.34375 L 1.140625 0 C 1.453125 -0.03125 2.59375 -0.03125 2.984375 -0.03125 C 3.375 -0.03125 4.5 -0.03125 4.8125 0 L 4.8125 -0.34375 L 4.453125 -0.34375 C 3.421875 -0.34375 3.375 -0.484375 3.375 -0.90625 Z M 3.375 -7.515625 "/>
</g>
<g id="glyph-1-1">
<path d="M 5.15625 -1.96875 L 4.90625 -1.96875 C 4.875 -1.765625 4.78125 -1.125 4.65625 -0.9375 C 4.578125 -0.828125 3.90625 -0.828125 3.5625 -0.828125 L 1.390625 -0.828125 C 1.703125 -1.109375 2.421875 -1.859375 2.71875 -2.140625 C 4.5 -3.78125 5.15625 -4.390625 5.15625 -5.546875 C 5.15625 -6.90625 4.09375 -7.796875 2.734375 -7.796875 C 1.375 -7.796875 0.578125 -6.640625 0.578125 -5.625 C 0.578125 -5.03125 1.09375 -5.03125 1.125 -5.03125 C 1.375 -5.03125 1.671875 -5.203125 1.671875 -5.578125 C 1.671875 -5.921875 1.453125 -6.140625 1.125 -6.140625 C 1.015625 -6.140625 1 -6.140625 0.96875 -6.125 C 1.1875 -6.921875 1.8125 -7.46875 2.578125 -7.46875 C 3.578125 -7.46875 4.1875 -6.625 4.1875 -5.546875 C 4.1875 -4.546875 3.609375 -3.6875 2.953125 -2.9375 L 0.578125 -0.28125 L 0.578125 0 L 4.859375 0 Z M 5.15625 -1.96875 "/>
</g>
</g>
</defs>
<g fill="rgb(0%, 0%, 0%)" fill-opacity="1">
<use xlink:href="#glyph-0-0" x="2.933839" y="13.46897"/>
</g>
<g fill="rgb(0%, 0%, 0%)" fill-opacity="1">
<use xlink:href="#glyph-1-0" x="8.908507" y="16.00332"/>
</g>
<g fill="rgb(0%, 0%, 0%)" fill-opacity="1">
<use xlink:href="#glyph-0-1" x="15.142302" y="13.46897"/>
</g>
<g fill="rgb(0%, 0%, 0%)" fill-opacity="1">
<use xlink:href="#glyph-0-0" x="27.241053" y="13.46897"/>
</g>
<g fill="rgb(0%, 0%, 0%)" fill-opacity="1">
<use xlink:href="#glyph-1-1" x="33.223351" y="16.00332"/>
</g>
</svg>
